<svg width="1920" height="216" viewBox="0 0 1920 216" fill="none" xmlns="http://www.w3.org/2000/svg">
<g opacity="0.3">
<path d="M92.0464 77.8135V95.062H5.47412V77.8135H92.0464ZM8.77002 9.03906V169H-12.4336V9.03906H8.77002ZM110.503 9.03906V169H89.4097V9.03906H110.503Z" fill="#E6EAF0"/>
<path d="M167.193 50.1279V169H146.758V50.1279H167.193ZM145.22 18.5972C145.22 15.3013 146.209 12.5181 148.187 10.2476C150.237 7.97705 153.24 6.8418 157.195 6.8418C161.077 6.8418 164.043 7.97705 166.094 10.2476C168.218 12.5181 169.28 15.3013 169.28 18.5972C169.28 21.7466 168.218 24.4565 166.094 26.7271C164.043 28.9243 161.077 30.0229 157.195 30.0229C153.24 30.0229 150.237 28.9243 148.187 26.7271C146.209 24.4565 145.22 21.7466 145.22 18.5972Z" fill="#E6EAF0"/>
<path d="M276.836 50.1279H295.293V166.473C295.293 176.947 293.169 185.882 288.921 193.28C284.673 200.677 278.741 206.28 271.124 210.089C263.58 213.971 254.864 215.912 244.976 215.912C240.875 215.912 236.041 215.252 230.474 213.934C224.981 212.689 219.561 210.528 214.214 207.452C208.941 204.449 204.51 200.384 200.921 195.257L211.578 183.172C216.558 189.178 221.758 193.353 227.178 195.697C232.671 198.041 238.091 199.212 243.438 199.212C249.883 199.212 255.45 198.004 260.137 195.587C264.825 193.17 268.45 189.581 271.014 184.82C273.65 180.133 274.969 174.347 274.969 167.462V76.2754L276.836 50.1279ZM194.988 110.882V108.575C194.988 99.4932 196.05 91.2534 198.174 83.856C200.372 76.3853 203.484 69.9766 207.513 64.6299C211.614 59.2832 216.558 55.1816 222.344 52.3252C228.13 49.3955 234.649 47.9307 241.9 47.9307C249.371 47.9307 255.889 49.249 261.456 51.8857C267.095 54.4492 271.856 58.2212 275.738 63.2017C279.693 68.1089 282.806 74.0415 285.076 80.9995C287.347 87.9575 288.921 95.8311 289.8 104.62V114.728C288.995 123.443 287.42 131.28 285.076 138.238C282.806 145.196 279.693 151.129 275.738 156.036C271.856 160.943 267.095 164.715 261.456 167.352C255.816 169.916 249.224 171.197 241.68 171.197C234.576 171.197 228.13 169.696 222.344 166.693C216.631 163.69 211.724 159.479 207.623 154.059C203.521 148.639 200.372 142.267 198.174 134.942C196.05 127.545 194.988 119.525 194.988 110.882ZM215.313 108.575V110.882C215.313 116.815 215.899 122.381 217.071 127.582C218.316 132.782 220.184 137.359 222.674 141.314C225.237 145.27 228.497 148.382 232.452 150.653C236.407 152.85 241.131 153.949 246.624 153.949C253.362 153.949 258.929 152.521 263.323 149.664C267.718 146.808 271.197 143.036 273.76 138.348C276.397 133.661 278.448 128.57 279.913 123.077V96.6001C279.107 92.5718 277.862 88.6899 276.177 84.9546C274.566 81.146 272.442 77.7769 269.805 74.8472C267.242 71.8442 264.056 69.4639 260.247 67.7061C256.438 65.9482 251.971 65.0693 246.844 65.0693C241.277 65.0693 236.48 66.2412 232.452 68.585C228.497 70.8555 225.237 74.0049 222.674 78.0332C220.184 81.9883 218.316 86.6025 217.071 91.876C215.899 97.0762 215.313 102.643 215.313 108.575Z" fill="#E6EAF0"/>
<path d="M346.49 0.25V169H326.165V0.25H346.49ZM341.656 105.06L333.196 104.73C333.27 96.6001 334.478 89.0928 336.822 82.208C339.166 75.25 342.461 69.2075 346.709 64.0806C350.958 58.9536 356.011 54.9985 361.871 52.2153C367.803 49.3589 374.358 47.9307 381.536 47.9307C387.396 47.9307 392.669 48.7363 397.356 50.3477C402.044 51.8857 406.036 54.376 409.332 57.8184C412.701 61.2607 415.264 65.7285 417.022 71.2217C418.78 76.6416 419.659 83.27 419.659 91.1069V169H399.224V90.8872C399.224 84.6616 398.309 79.6812 396.478 75.9458C394.646 72.1372 391.973 69.3906 388.458 67.7061C384.942 65.9482 380.621 65.0693 375.494 65.0693C370.44 65.0693 365.826 66.1313 361.651 68.2554C357.549 70.3794 353.997 73.3091 350.994 77.0444C348.064 80.7798 345.757 85.0645 344.073 89.8984C342.461 94.6592 341.656 99.7129 341.656 105.06Z" fill="#E6EAF0"/>
<path d="M492.388 92.645V109.344H438.775V92.645H492.388Z" fill="#E6EAF0"/>
<path d="M548.418 150.653L580.938 50.1279H601.702L558.965 169H545.342L548.418 150.653ZM521.282 50.1279L554.791 151.202L557.098 169H543.475L500.408 50.1279H521.282Z" fill="#E6EAF0"/>
<path d="M689.593 148.675V87.4814C689.593 82.7939 688.641 78.729 686.736 75.2866C684.905 71.771 682.122 69.061 678.387 67.1567C674.651 65.2524 670.037 64.3003 664.544 64.3003C659.417 64.3003 654.913 65.1792 651.031 66.937C647.222 68.6948 644.219 71.002 642.022 73.8584C639.898 76.7148 638.836 79.791 638.836 83.0869H618.511C618.511 78.8389 619.61 74.6274 621.807 70.4526C624.004 66.2778 627.154 62.5059 631.255 59.1367C635.43 55.6943 640.411 52.9844 646.197 51.0068C652.056 48.9561 658.575 47.9307 665.752 47.9307C674.395 47.9307 682.012 49.3955 688.604 52.3252C695.269 55.2549 700.469 59.686 704.205 65.6187C708.013 71.478 709.917 78.8389 709.917 87.7012V143.072C709.917 147.027 710.247 151.239 710.906 155.707C711.639 160.174 712.701 164.02 714.092 167.242V169H692.889C691.863 166.656 691.058 163.543 690.472 159.662C689.886 155.707 689.593 152.044 689.593 148.675ZM693.108 96.9297L693.328 111.212H672.784C666.998 111.212 661.834 111.688 657.293 112.64C652.752 113.519 648.943 114.874 645.867 116.705C642.791 118.536 640.447 120.843 638.836 123.626C637.225 126.336 636.419 129.522 636.419 133.185C636.419 136.92 637.261 140.326 638.946 143.402C640.63 146.478 643.157 148.932 646.526 150.763C649.969 152.521 654.18 153.399 659.161 153.399C665.386 153.399 670.879 152.081 675.64 149.444C680.401 146.808 684.173 143.585 686.956 139.776C689.812 135.968 691.351 132.269 691.57 128.68L700.25 138.458C699.737 141.534 698.345 144.94 696.075 148.675C693.804 152.411 690.765 156 686.956 159.442C683.221 162.811 678.753 165.631 673.553 167.901C668.426 170.099 662.64 171.197 656.194 171.197C648.138 171.197 641.07 169.623 634.991 166.473C628.985 163.324 624.297 159.112 620.928 153.839C617.632 148.492 615.984 142.523 615.984 135.931C615.984 129.559 617.229 123.956 619.72 119.122C622.21 114.215 625.799 110.15 630.486 106.927C635.174 103.631 640.813 101.141 647.405 99.4565C653.997 97.772 661.358 96.9297 669.488 96.9297H693.108Z" fill="#E6EAF0"/>
<path d="M763.97 0.25V169H743.536V0.25H763.97Z" fill="#E6EAF0"/>
<path d="M869.329 141.534V50.1279H889.764V169H870.318L869.329 141.534ZM873.174 116.485L881.634 116.266C881.634 124.176 880.792 131.5 879.107 138.238C877.496 144.903 874.859 150.689 871.197 155.597C867.535 160.504 862.737 164.349 856.805 167.132C850.872 169.842 843.658 171.197 835.162 171.197C829.375 171.197 824.065 170.355 819.231 168.67C814.471 166.986 810.369 164.386 806.927 160.87C803.484 157.354 800.811 152.777 798.907 147.137C797.076 141.498 796.16 134.723 796.16 126.812V50.1279H816.485V127.032C816.485 132.379 817.071 136.81 818.243 140.326C819.488 143.768 821.136 146.515 823.187 148.565C825.311 150.543 827.654 151.935 830.218 152.74C832.854 153.546 835.564 153.949 838.348 153.949C846.99 153.949 853.838 152.301 858.892 149.005C863.946 145.636 867.571 141.131 869.769 135.492C872.039 129.779 873.174 123.443 873.174 116.485Z" fill="#E6EAF0"/>
<path d="M970.074 171.197C961.797 171.197 954.29 169.806 947.552 167.022C940.887 164.166 935.137 160.174 930.303 155.047C925.542 149.92 921.88 143.841 919.317 136.81C916.753 129.779 915.472 122.088 915.472 113.739V109.125C915.472 99.4565 916.9 90.8506 919.756 83.3066C922.613 75.6895 926.495 69.2441 931.402 63.9707C936.309 58.6973 941.875 54.7056 948.101 51.9956C954.327 49.2856 960.772 47.9307 967.437 47.9307C975.933 47.9307 983.257 49.3955 989.41 52.3252C995.635 55.2549 1000.73 59.3564 1004.68 64.6299C1008.64 69.8301 1011.57 75.9824 1013.47 83.0869C1015.37 90.1182 1016.33 97.8086 1016.33 106.158V115.277H927.557V98.6875H996.001V97.1494C995.708 91.876 994.61 86.749 992.706 81.7686C990.875 76.7881 987.945 72.6865 983.917 69.4639C979.888 66.2412 974.395 64.6299 967.437 64.6299C962.823 64.6299 958.575 65.6187 954.693 67.5962C950.811 69.5005 947.479 72.3569 944.695 76.1655C941.912 79.9741 939.751 84.625 938.213 90.1182C936.675 95.6113 935.906 101.947 935.906 109.125V113.739C935.906 119.378 936.675 124.688 938.213 129.669C939.825 134.576 942.132 138.897 945.135 142.633C948.211 146.368 951.91 149.298 956.231 151.422C960.625 153.546 965.606 154.608 971.172 154.608C978.35 154.608 984.429 153.143 989.41 150.213C994.39 147.284 998.748 143.365 1002.48 138.458L1014.79 148.236C1012.22 152.118 1008.97 155.816 1005.01 159.332C1001.06 162.848 996.185 165.704 990.398 167.901C984.686 170.099 977.911 171.197 970.074 171.197Z" fill="#E6EAF0"/>
<path d="M1170.79 145.929V0.25H1191.23V169H1172.55L1170.79 145.929ZM1090.81 110.882V108.575C1090.81 99.4932 1091.91 91.2534 1094.11 83.856C1096.38 76.3853 1099.57 69.9766 1103.67 64.6299C1107.84 59.2832 1112.79 55.1816 1118.5 52.3252C1124.29 49.3955 1130.73 47.9307 1137.83 47.9307C1145.31 47.9307 1151.82 49.249 1157.39 51.8857C1163.03 54.4492 1167.79 58.2212 1171.67 63.2017C1175.63 68.1089 1178.74 74.0415 1181.01 80.9995C1183.28 87.9575 1184.86 95.8311 1185.74 104.62V114.728C1184.93 123.443 1183.35 131.28 1181.01 138.238C1178.74 145.196 1175.63 151.129 1171.67 156.036C1167.79 160.943 1163.03 164.715 1157.39 167.352C1151.75 169.916 1145.16 171.197 1137.62 171.197C1130.66 171.197 1124.29 169.696 1118.5 166.693C1112.79 163.69 1107.84 159.479 1103.67 154.059C1099.57 148.639 1096.38 142.267 1094.11 134.942C1091.91 127.545 1090.81 119.525 1090.81 110.882ZM1111.25 108.575V110.882C1111.25 116.815 1111.83 122.381 1113.01 127.582C1114.25 132.782 1116.16 137.359 1118.72 141.314C1121.28 145.27 1124.54 148.382 1128.5 150.653C1132.45 152.85 1137.18 153.949 1142.67 153.949C1149.41 153.949 1154.94 152.521 1159.26 149.664C1163.65 146.808 1167.17 143.036 1169.81 138.348C1172.44 133.661 1174.49 128.57 1175.96 123.077V96.6001C1175.08 92.5718 1173.8 88.6899 1172.11 84.9546C1170.5 81.146 1168.38 77.7769 1165.74 74.8472C1163.18 71.8442 1159.99 69.4639 1156.18 67.7061C1152.45 65.9482 1148.02 65.0693 1142.89 65.0693C1137.32 65.0693 1132.52 66.2412 1128.5 68.585C1124.54 70.8555 1121.28 74.0049 1118.72 78.0332C1116.16 81.9883 1114.25 86.6025 1113.01 91.876C1111.83 97.0762 1111.25 102.643 1111.25 108.575Z" fill="#E6EAF0"/>
<path d="M1292.96 148.675V87.4814C1292.96 82.7939 1292.01 78.729 1290.11 75.2866C1288.27 71.771 1285.49 69.061 1281.76 67.1567C1278.02 65.2524 1273.41 64.3003 1267.91 64.3003C1262.79 64.3003 1258.28 65.1792 1254.4 66.937C1250.59 68.6948 1247.59 71.002 1245.39 73.8584C1243.27 76.7148 1242.21 79.791 1242.21 83.0869H1221.88C1221.88 78.8389 1222.98 74.6274 1225.18 70.4526C1227.37 66.2778 1230.52 62.5059 1234.62 59.1367C1238.8 55.6943 1243.78 52.9844 1249.57 51.0068C1255.43 48.9561 1261.94 47.9307 1269.12 47.9307C1277.76 47.9307 1285.38 49.3955 1291.97 52.3252C1298.64 55.2549 1303.84 59.686 1307.57 65.6187C1311.38 71.478 1313.29 78.8389 1313.29 87.7012V143.072C1313.29 147.027 1313.62 151.239 1314.28 155.707C1315.01 160.174 1316.07 164.02 1317.46 167.242V169H1296.26C1295.23 166.656 1294.43 163.543 1293.84 159.662C1293.25 155.707 1292.96 152.044 1292.96 148.675ZM1296.48 96.9297L1296.7 111.212H1276.15C1270.37 111.212 1265.2 111.688 1260.66 112.64C1256.12 113.519 1252.31 114.874 1249.24 116.705C1246.16 118.536 1243.82 120.843 1242.21 123.626C1240.59 126.336 1239.79 129.522 1239.79 133.185C1239.79 136.92 1240.63 140.326 1242.31 143.402C1244 146.478 1246.53 148.932 1249.9 150.763C1253.34 152.521 1257.55 153.399 1262.53 153.399C1268.76 153.399 1274.25 152.081 1279.01 149.444C1283.77 146.808 1287.54 143.585 1290.33 139.776C1293.18 135.968 1294.72 132.269 1294.94 128.68L1303.62 138.458C1303.11 141.534 1301.71 144.94 1299.44 148.675C1297.17 152.411 1294.13 156 1290.33 159.442C1286.59 162.811 1282.12 165.631 1276.92 167.901C1271.79 170.099 1266.01 171.197 1259.56 171.197C1251.51 171.197 1244.44 169.623 1238.36 166.473C1232.35 163.324 1227.67 159.112 1224.3 153.839C1221 148.492 1219.35 142.523 1219.35 135.931C1219.35 129.559 1220.6 123.956 1223.09 119.122C1225.58 114.215 1229.17 110.15 1233.86 106.927C1238.54 103.631 1244.18 101.141 1250.77 99.4565C1257.37 97.772 1264.73 96.9297 1272.86 96.9297H1296.48Z" fill="#E6EAF0"/>
<path d="M1395.02 50.1279V65.7285H1330.75V50.1279H1395.02ZM1352.51 21.2339H1372.83V139.557C1372.83 143.585 1373.46 146.625 1374.7 148.675C1375.95 150.726 1377.56 152.081 1379.53 152.74C1381.51 153.399 1383.64 153.729 1385.91 153.729C1387.59 153.729 1389.35 153.583 1391.18 153.29C1393.08 152.923 1394.51 152.63 1395.46 152.411L1395.57 169C1393.96 169.513 1391.84 169.989 1389.2 170.428C1386.64 170.941 1383.53 171.197 1379.86 171.197C1374.88 171.197 1370.31 170.208 1366.13 168.231C1361.96 166.253 1358.62 162.958 1356.13 158.343C1353.72 153.656 1352.51 147.357 1352.51 139.447V21.2339Z" fill="#E6EAF0"/>
<path d="M1488.96 148.675V87.4814C1488.96 82.7939 1488.01 78.729 1486.1 75.2866C1484.27 71.771 1481.49 69.061 1477.75 67.1567C1474.02 65.2524 1469.4 64.3003 1463.91 64.3003C1458.78 64.3003 1454.28 65.1792 1450.4 66.937C1446.59 68.6948 1443.58 71.002 1441.39 73.8584C1439.26 76.7148 1438.2 79.791 1438.2 83.0869H1417.88C1417.88 78.8389 1418.98 74.6274 1421.17 70.4526C1423.37 66.2778 1426.52 62.5059 1430.62 59.1367C1434.8 55.6943 1439.78 52.9844 1445.56 51.0068C1451.42 48.9561 1457.94 47.9307 1465.12 47.9307C1473.76 47.9307 1481.38 49.3955 1487.97 52.3252C1494.63 55.2549 1499.83 59.686 1503.57 65.6187C1507.38 71.478 1509.28 78.8389 1509.28 87.7012V143.072C1509.28 147.027 1509.61 151.239 1510.27 155.707C1511 160.174 1512.07 164.02 1513.46 167.242V169H1492.25C1491.23 166.656 1490.42 163.543 1489.84 159.662C1489.25 155.707 1488.96 152.044 1488.96 148.675ZM1492.47 96.9297L1492.69 111.212H1472.15C1466.36 111.212 1461.2 111.688 1456.66 112.64C1452.12 113.519 1448.31 114.874 1445.23 116.705C1442.16 118.536 1439.81 120.843 1438.2 123.626C1436.59 126.336 1435.78 129.522 1435.78 133.185C1435.78 136.92 1436.63 140.326 1438.31 143.402C1440 146.478 1442.52 148.932 1445.89 150.763C1449.33 152.521 1453.55 153.399 1458.53 153.399C1464.75 153.399 1470.24 152.081 1475.01 149.444C1479.77 146.808 1483.54 143.585 1486.32 139.776C1489.18 135.968 1490.72 132.269 1490.94 128.68L1499.61 138.458C1499.1 141.534 1497.71 144.94 1495.44 148.675C1493.17 152.411 1490.13 156 1486.32 159.442C1482.59 162.811 1478.12 165.631 1472.92 167.901C1467.79 170.099 1462 171.197 1455.56 171.197C1447.5 171.197 1440.44 169.623 1434.36 166.473C1428.35 163.324 1423.66 159.112 1420.29 153.839C1417 148.492 1415.35 142.523 1415.35 135.931C1415.35 129.559 1416.59 123.956 1419.08 119.122C1421.58 114.215 1425.16 110.15 1429.85 106.927C1434.54 103.631 1440.18 101.141 1446.77 99.4565C1453.36 97.772 1460.72 96.9297 1468.85 96.9297H1492.47Z" fill="#E6EAF0"/>
<path d="M1610.47 137.469C1610.47 134.54 1609.81 131.83 1608.49 129.339C1607.24 126.776 1604.64 124.469 1600.69 122.418C1596.81 120.294 1590.95 118.463 1583.11 116.925C1576.52 115.533 1570.55 113.885 1565.2 111.981C1559.93 110.077 1555.43 107.77 1551.69 105.06C1548.03 102.35 1545.21 99.1636 1543.23 95.5015C1541.25 91.8394 1540.26 87.5547 1540.26 82.6475C1540.26 77.96 1541.29 73.5288 1543.34 69.354C1545.46 65.1792 1548.43 61.4805 1552.24 58.2578C1556.12 55.0352 1560.77 52.5083 1566.19 50.6772C1571.61 48.8462 1577.65 47.9307 1584.32 47.9307C1593.84 47.9307 1601.97 49.6152 1608.71 52.9844C1615.45 56.3535 1620.61 60.8579 1624.2 66.4976C1627.79 72.064 1629.58 78.2529 1629.58 85.0645H1609.26C1609.26 81.7686 1608.27 78.5825 1606.29 75.5063C1604.39 72.3569 1601.57 69.7568 1597.83 67.7061C1594.17 65.6553 1589.67 64.6299 1584.32 64.6299C1578.68 64.6299 1574.1 65.5088 1570.59 67.2666C1567.14 68.9512 1564.62 71.1118 1563.01 73.7485C1561.47 76.3853 1560.7 79.1685 1560.7 82.0981C1560.7 84.2954 1561.06 86.2729 1561.8 88.0308C1562.6 89.7153 1563.99 91.29 1565.97 92.7549C1567.95 94.1465 1570.73 95.4648 1574.32 96.71C1577.91 97.9551 1582.49 99.2002 1588.05 100.445C1597.8 102.643 1605.82 105.279 1612.11 108.355C1618.41 111.432 1623.1 115.204 1626.18 119.671C1629.25 124.139 1630.79 129.559 1630.79 135.931C1630.79 141.131 1629.69 145.892 1627.5 150.213C1625.37 154.535 1622.26 158.27 1618.16 161.419C1614.13 164.496 1609.29 166.913 1603.66 168.67C1598.09 170.355 1591.83 171.197 1584.87 171.197C1574.4 171.197 1565.53 169.33 1558.28 165.594C1551.03 161.859 1545.54 157.025 1541.8 151.092C1538.07 145.16 1536.2 138.897 1536.2 132.306H1556.63C1556.93 137.872 1558.54 142.303 1561.47 145.599C1564.4 148.822 1567.99 151.129 1572.23 152.521C1576.48 153.839 1580.69 154.498 1584.87 154.498C1590.44 154.498 1595.09 153.766 1598.82 152.301C1602.63 150.836 1605.52 148.822 1607.5 146.258C1609.48 143.695 1610.47 140.765 1610.47 137.469Z" fill="#E6EAF0"/>
<path d="M1706.82 171.197C1698.54 171.197 1691.03 169.806 1684.29 167.022C1677.63 164.166 1671.88 160.174 1667.05 155.047C1662.29 149.92 1658.62 143.841 1656.06 136.81C1653.5 129.779 1652.21 122.088 1652.21 113.739V109.125C1652.21 99.4565 1653.64 90.8506 1656.5 83.3066C1659.36 75.6895 1663.24 69.2441 1668.15 63.9707C1673.05 58.6973 1678.62 54.7056 1684.84 51.9956C1691.07 49.2856 1697.52 47.9307 1704.18 47.9307C1712.68 47.9307 1720 49.3955 1726.15 52.3252C1732.38 55.2549 1737.47 59.3564 1741.42 64.6299C1745.38 69.8301 1748.31 75.9824 1750.21 83.0869C1752.12 90.1182 1753.07 97.8086 1753.07 106.158V115.277H1664.3V98.6875H1732.74V97.1494C1732.45 91.876 1731.35 86.749 1729.45 81.7686C1727.62 76.7881 1724.69 72.6865 1720.66 69.4639C1716.63 66.2412 1711.14 64.6299 1704.18 64.6299C1699.57 64.6299 1695.32 65.6187 1691.44 67.5962C1687.55 69.5005 1684.22 72.3569 1681.44 76.1655C1678.66 79.9741 1676.49 84.625 1674.96 90.1182C1673.42 95.6113 1672.65 101.947 1672.65 109.125V113.739C1672.65 119.378 1673.42 124.688 1674.96 129.669C1676.57 134.576 1678.88 138.897 1681.88 142.633C1684.95 146.368 1688.65 149.298 1692.97 151.422C1697.37 153.546 1702.35 154.608 1707.92 154.608C1715.09 154.608 1721.17 153.143 1726.15 150.213C1731.13 147.284 1735.49 143.365 1739.23 138.458L1751.53 148.236C1748.97 152.118 1745.71 155.816 1741.75 159.332C1737.8 162.848 1732.93 165.704 1727.14 167.901C1721.43 170.099 1714.65 171.197 1706.82 171.197Z" fill="#E6EAF0"/>
<path d="M1826.57 50.1279V65.7285H1762.3V50.1279H1826.57ZM1784.05 21.2339H1804.38V139.557C1804.38 143.585 1805 146.625 1806.24 148.675C1807.49 150.726 1809.1 152.081 1811.08 152.74C1813.05 153.399 1815.18 153.729 1817.45 153.729C1819.13 153.729 1820.89 153.583 1822.72 153.29C1824.63 152.923 1826.06 152.63 1827.01 152.411L1827.12 169C1825.51 169.513 1823.38 169.989 1820.75 170.428C1818.18 170.941 1815.07 171.197 1811.41 171.197C1806.43 171.197 1801.85 170.208 1797.67 168.231C1793.5 166.253 1790.17 162.958 1787.68 158.343C1785.26 153.656 1784.05 147.357 1784.05 139.447V21.2339Z" fill="#E6EAF0"/>
<path d="M1919.62 137.469C1919.62 134.54 1918.96 131.83 1917.64 129.339C1916.4 126.776 1913.8 124.469 1909.84 122.418C1905.96 120.294 1900.1 118.463 1892.27 116.925C1885.67 115.533 1879.71 113.885 1874.36 111.981C1869.08 110.077 1864.58 107.77 1860.85 105.06C1857.18 102.35 1854.36 99.1636 1852.39 95.5015C1850.41 91.8394 1849.42 87.5547 1849.42 82.6475C1849.42 77.96 1850.44 73.5288 1852.5 69.354C1854.62 65.1792 1857.59 61.4805 1861.39 58.2578C1865.28 55.0352 1869.93 52.5083 1875.35 50.6772C1880.77 48.8462 1886.81 47.9307 1893.47 47.9307C1903 47.9307 1911.13 49.6152 1917.86 52.9844C1924.6 56.3535 1929.77 60.8579 1933.35 66.4976C1936.94 72.064 1938.74 78.2529 1938.74 85.0645H1918.41C1918.41 81.7686 1917.42 78.5825 1915.45 75.5063C1913.54 72.3569 1910.72 69.7568 1906.99 67.7061C1903.33 65.6553 1898.82 64.6299 1893.47 64.6299C1887.83 64.6299 1883.26 65.5088 1879.74 67.2666C1876.3 68.9512 1873.77 71.1118 1872.16 73.7485C1870.62 76.3853 1869.85 79.1685 1869.85 82.0981C1869.85 84.2954 1870.22 86.2729 1870.95 88.0308C1871.76 89.7153 1873.15 91.29 1875.13 92.7549C1877.1 94.1465 1879.89 95.4648 1883.48 96.71C1887.07 97.9551 1891.64 99.2002 1897.21 100.445C1906.95 102.643 1914.97 105.279 1921.27 108.355C1927.57 111.432 1932.26 115.204 1935.33 119.671C1938.41 124.139 1939.95 129.559 1939.95 135.931C1939.95 141.131 1938.85 145.892 1936.65 150.213C1934.53 154.535 1931.41 158.27 1927.31 161.419C1923.28 164.496 1918.45 166.913 1912.81 168.67C1907.24 170.355 1900.98 171.197 1894.02 171.197C1883.55 171.197 1874.69 169.33 1867.44 165.594C1860.19 161.859 1854.69 157.025 1850.96 151.092C1847.22 145.16 1845.35 138.897 1845.35 132.306H1865.79C1866.08 137.872 1867.69 142.303 1870.62 145.599C1873.55 148.822 1877.14 151.129 1881.39 152.521C1885.64 153.839 1889.85 154.498 1894.02 154.498C1899.59 154.498 1904.24 153.766 1907.98 152.301C1911.79 150.836 1914.68 148.822 1916.66 146.258C1918.63 143.695 1919.62 140.765 1919.62 137.469Z" fill="#E6EAF0"/>
</g>
</svg>
