<svg width="182" height="36" viewBox="0 0 182 36" fill="none" xmlns="http://www.w3.org/2000/svg">
<g clip-path="url(#clip0_1408_537)">
<path d="M9.52366 18.093C9.52366 18.093 12.5832 11.3309 24.2111 10.5059C24.2111 10.5059 13.6109 13.8625 8.77734 20.1945" fill="#68C6E5"/>
<path d="M10.0533 14.4712C10.0533 14.4712 9.85584 1.54386 20.1387 5.7245C20.1387 5.7245 30.3504 9.65347 29.6476 31.4115C29.6476 31.4115 35.9865 11.2049 21.7767 1.64155C21.7767 1.64155 17.1683 -1.83718 13.2106 1.3336C13.2106 1.3336 7.85575 4.80384 10.0533 14.4712Z" fill="#3493D1"/>
<path d="M23.7549 28.6545C23.7549 28.6545 12.4614 34.944 11.2788 23.9047C11.2788 23.9047 9.90932 13.0458 29.4059 3.37207C29.4059 3.37207 8.60777 7.3467 6.90812 24.3974C6.90812 24.3974 6.0238 30.1039 10.6896 32.0918C10.6896 32.0875 16.2801 35.1649 23.7549 28.6545Z" fill="#184198"/>
<path d="M27.185 9.31738C27.185 9.31738 40.1441 13.7677 33.1226 20.6488C33.1226 20.6488 26.3718 27.5606 4.84961 19.229C4.84961 19.229 23.2644 31.5968 36.7438 23.4383C36.7438 23.4383 41.4924 20.927 39.4233 16.5743C39.4254 16.5743 37.4434 10.976 27.185 9.31738Z" fill="#68C6E5"/>
<path d="M6.18482 19.3066C6.11653 19.9165 5.86895 20.4924 5.47341 20.9616C5.07786 21.4307 4.5521 21.772 3.96263 21.9423C3.37316 22.1125 2.74645 22.1041 2.16176 21.9181C1.57707 21.732 1.06067 21.3768 0.677854 20.8972C0.29504 20.4176 0.0630135 19.8352 0.011118 19.2237C-0.0407776 18.6122 0.0897889 17.999 0.386305 17.4617C0.682821 16.9244 1.13197 16.4872 1.67694 16.2052C2.22192 15.9233 2.83824 15.8093 3.44797 15.8778C4.26544 15.9695 5.013 16.3823 5.52624 17.0253C6.03948 17.6683 6.27638 18.4889 6.18482 19.3066Z" fill="#68C6E5"/>
<path d="M3.29826 18.806C2.46807 19.5716 1.38735 19.75 0.88414 19.2031C0.380934 18.6562 0.646338 17.5944 1.47652 16.8287C2.30671 16.0631 3.38743 15.8847 3.8917 16.4305C4.39597 16.9763 4.1295 18.0403 3.29826 18.806Z" fill="white"/>
<path d="M32.9791 33.2433C32.9106 33.8532 32.6628 34.429 32.2671 34.898C31.8714 35.367 31.3455 35.7081 30.756 35.8781C30.1665 36.0482 29.5398 36.0395 28.9552 35.8533C28.3705 35.6671 27.8543 35.3116 27.4716 34.8319C27.089 34.3522 26.8572 33.7697 26.8055 33.1582C26.7538 32.5467 26.8845 31.9336 27.1812 31.3964C27.4779 30.8592 27.9272 30.4221 28.4722 30.1403C29.0173 29.8586 29.6336 29.7448 30.2433 29.8134C31.0608 29.9054 31.8083 30.3184 32.3213 30.9617C32.8344 31.6049 33.071 32.4256 32.9791 33.2433Z" fill="#3493D1"/>
<path d="M30.0937 32.7435C29.2635 33.5091 28.1828 33.6875 27.6796 33.1406C27.1764 32.5937 27.4418 31.5319 28.2709 30.7662C29.1 30.0006 30.1818 29.8222 30.6861 30.368C31.1904 30.9138 30.9239 31.9778 30.0937 32.7435Z" fill="white"/>
<path d="M27.6615 7.74512C27.6615 7.74512 29.1169 10.1216 29.6297 11.9491C30.1425 13.7766 27.4247 12.085 27.4247 12.085L26.2007 8.70718L27.6615 7.74512Z" fill="#3493D1"/>
<path d="M48.8927 3.92868C48.7857 3.92011 48.6821 3.88689 48.59 3.83163C48.4979 3.77637 48.4198 3.70055 48.3619 3.61012L48.3035 3.33721C48.2984 3.21793 48.3209 3.09908 48.3693 2.98997C48.5079 2.83695 48.6957 2.73737 48.9001 2.70858H55.376C55.5697 2.73965 55.7458 2.83956 55.8718 2.98997L55.9206 3.32022L55.8718 3.58463C55.756 3.76073 55.5756 3.88429 55.3696 3.92868H52.8908V7.28636H53.8324C54.068 7.32162 54.2812 7.44589 54.428 7.63359L54.4768 7.96384L54.428 8.26117C54.2812 8.44887 54.068 8.57314 53.8324 8.6084H52.8908V12.9547L55.204 11.914L55.5013 11.8641L55.8654 11.914C56.0236 12.0752 56.1373 12.2746 56.1956 12.4928C56.159 12.7145 56.0413 12.9147 55.8654 13.0545L48.6613 16.4589L48.2982 16.5407C48.1938 16.5392 48.0915 16.5111 48.001 16.4589C47.8977 16.4025 47.8121 16.3185 47.7536 16.2164C47.6951 16.1142 47.6661 15.9978 47.6697 15.8802C47.6697 15.6813 47.7855 15.4554 48.0169 15.2027L48.6613 14.8841V6.54304C48.6613 6.35615 48.777 6.16819 49.0084 5.9813C49.1148 5.94065 49.2256 5.91285 49.3386 5.89848C49.4749 5.90154 49.6095 5.92962 49.7356 5.9813L49.948 6.24571C50.019 6.33251 50.0698 6.43409 50.0966 6.54304V14.3267L51.3705 13.6651V3.92868H48.8927ZM62.7999 3.18536C62.9111 3.18663 63.0203 3.21468 63.1184 3.26713C63.2279 3.32469 63.3236 3.40551 63.3987 3.50393L63.4485 3.7025L63.4645 3.88408C63.4717 4.0035 63.4491 4.12283 63.3987 4.23132C63.3362 4.32823 63.2506 4.40808 63.1496 4.46369C63.0486 4.5193 62.9354 4.54892 62.8201 4.54988H62.3413C62.0115 7.87712 61.3232 10.4826 60.2764 12.3664C61.0966 13.4046 62.1195 14.2649 63.2829 14.8948C63.4325 15.0696 63.5146 15.2922 63.5144 15.5223V15.5892C63.5024 15.7113 63.4576 15.828 63.385 15.9268C63.3123 16.0257 63.2143 16.1031 63.1014 16.151L62.8042 16.1839C62.6387 16.1805 62.4778 16.1288 62.3413 16.0352C61.3172 15.4406 60.3093 14.5811 59.3178 13.457C57.9311 14.7022 56.3058 15.6524 54.5405 16.2497L54.3282 16.2667C54.2379 16.269 54.148 16.2531 54.0639 16.2201C53.9799 16.187 53.9032 16.1375 53.8386 16.0743C53.774 16.0112 53.7227 15.9357 53.6877 15.8524C53.6527 15.7691 53.6348 15.6796 53.635 15.5892C53.6859 15.3384 53.8267 15.1148 54.0309 14.9606C54.8484 14.6454 55.6364 14.2584 56.3856 13.8042C57.109 13.3615 57.7772 12.8343 58.3761 12.2337C57.7071 10.8623 57.2503 9.39715 57.0215 7.88845C56.6358 8.63743 56.2777 9.27456 55.9472 9.79984C55.8794 9.90386 55.7862 9.98882 55.6764 10.0466C55.5666 10.1044 55.4438 10.1332 55.3198 10.1301C55.1811 10.1342 55.0442 10.0972 54.9265 10.0237C54.8088 9.9502 54.7155 9.84348 54.6584 9.71701L54.5925 9.41968C54.5967 9.25873 54.6362 9.10066 54.7083 8.9567C55.8314 7.1161 56.5746 4.83553 56.9377 2.11498C56.9377 1.87287 57.0753 1.66899 57.3506 1.50334L57.6978 1.4375L58.0948 1.50334C58.2412 1.70955 58.3528 1.93843 58.425 2.18082L58.3252 2.66079L58.3093 3.19173L62.7999 3.18536ZM60.9368 4.54351H58.1288C58.115 5.72995 58.2217 6.91471 58.4473 8.07959C58.658 9.1015 58.9765 10.0982 59.3974 11.0529C60.1597 9.33544 60.6728 7.16566 60.9368 4.54351Z" fill="#231815"/>
<path d="M79.2433 2.52718C79.3549 2.52641 79.4647 2.55497 79.5618 2.61001C79.6835 2.65256 79.7879 2.73388 79.859 2.8415L79.9078 3.04007L79.9248 3.20466C79.9289 3.30779 79.9062 3.41021 79.859 3.50199C79.6828 3.74552 79.479 3.86693 79.2475 3.86622H67.7937C67.3967 3.92144 67.1992 4.10302 67.1992 4.41097L67.2152 4.46087V8.98875C67.2165 10.3316 67.0839 11.6713 66.8192 12.9878C66.6174 13.9678 66.3355 14.9296 65.9762 15.8634L65.6578 16.1278C65.5549 16.1957 65.4338 16.2305 65.3106 16.2276C65.0802 16.2276 64.886 16.1055 64.7161 15.8634L64.6333 15.5002L64.7161 15.1201C65.0717 14.2402 65.3374 13.3265 65.5091 12.3931C65.7176 11.2541 65.8171 10.0978 65.8064 8.9399V3.75047C65.8064 2.93495 66.231 2.52718 67.0803 2.52718H71.9372V2.04827C71.9386 1.94366 71.9671 1.84119 72.02 1.75095L72.2844 1.41964L72.6029 1.38672L73.0158 1.41964C73.1682 1.60407 73.2806 1.81813 73.346 2.04827V2.52718H79.2433ZM68.6526 10.9883C68.4767 11.1513 68.2478 11.2452 68.0082 11.2527L67.661 11.1699C67.4296 11.0715 67.281 10.857 67.2152 10.5264L67.1992 10.4764L67.2152 10.195L67.3638 9.89772C68.2223 8.49957 68.8833 6.83595 69.3469 4.90687C69.4347 4.65623 69.5955 4.43765 69.8087 4.27929L70.1728 4.2623L70.5529 4.27929L70.8002 4.70405L70.9489 5.05128L70.8172 5.71284L70.5529 6.77472V15.8634C70.4875 16.0935 70.3751 16.3076 70.2227 16.492L69.8257 16.5579C69.7065 16.5625 69.5878 16.54 69.4785 16.492C69.2471 16.3264 69.1314 16.1278 69.1314 15.8963L69.1484 10.0634L68.6526 10.9883ZM76.8971 4.95677C76.9509 4.7113 77.0846 4.49059 77.2772 4.3292L77.6041 4.27929L78.0171 4.3292L78.1986 4.60954L78.3473 4.95677V6.03034H79.6361C79.7588 6.03113 79.8788 6.06567 79.9832 6.13016C80.1155 6.21668 80.2328 6.32429 80.3304 6.44872L80.3803 6.82781L80.3304 7.14638C80.145 7.32996 79.8968 7.43623 79.6361 7.44371H78.3473V14.261C78.3473 15.8029 77.4626 16.5738 75.6932 16.5738H75.5446C75.3214 16.5782 75.0981 16.5701 74.8758 16.5494C74.7484 16.5338 74.5637 16.4984 74.3216 16.4432C73.9301 16.3833 73.5473 16.2763 73.1814 16.1246C73.051 16.0583 72.9357 15.9658 72.8428 15.8528C72.7554 15.7352 72.7065 15.5935 72.7027 15.4471C72.7045 15.318 72.7339 15.1908 72.7888 15.074C72.8438 14.9572 72.923 14.8534 73.0211 14.7696H73.5169L73.8142 14.8196L74.7388 15.084C75.0059 15.1351 75.277 15.1628 75.5488 15.1668L75.8132 15.1997C76.54 15.1997 76.9035 14.7481 76.9035 13.8447V7.43309H71.709C71.5794 7.43326 71.4519 7.39991 71.339 7.33628C71.2261 7.27264 71.1316 7.18089 71.0646 7.06992L70.9489 6.7726L70.9988 6.57402L71.0646 6.39244C71.2287 6.19764 71.4574 6.06837 71.709 6.02821H76.8971V4.95677ZM71.8247 9.30307C71.7592 9.18375 71.7147 9.05409 71.6931 8.91973C71.7028 8.79353 71.7363 8.67031 71.7918 8.55656C71.8568 8.4487 71.9456 8.35713 72.0514 8.28885C72.1572 8.22057 72.2772 8.17739 72.4022 8.1626C72.6145 8.1626 72.8184 8.26879 73.0137 8.48117C73.8503 9.72007 74.6063 11.0115 75.2771 12.3475L75.293 12.5599L75.2442 13.1216L74.9129 13.334L74.5998 13.3998L74.5499 13.3839C74.2902 13.3134 74.0664 13.1482 73.9225 12.9209C73.7901 12.6788 73.6634 12.4363 73.5424 12.1935C73.3216 11.7751 73.1068 11.3897 72.898 11.0371C72.7876 10.8382 72.6223 10.56 72.4022 10.2025C72.1821 9.84498 71.9896 9.54518 71.8247 9.30307Z" fill="#231815"/>
<path d="M84.6109 4.85751L85.0897 4.74283L85.3211 4.75876C85.5224 4.87294 85.6839 5.04599 85.784 5.25466C85.7888 5.36846 85.7691 5.48196 85.7262 5.58748C85.6833 5.693 85.6183 5.78809 85.5355 5.8663C85.0485 6.24763 84.541 6.60212 84.0153 6.92819C83.4982 7.24759 82.9634 7.53725 82.4133 7.79575L82.0333 7.86158L81.6861 7.79575C81.5854 7.72843 81.5027 7.63751 81.4452 7.5309C81.3876 7.4243 81.357 7.30525 81.356 7.1841C81.4019 6.93839 81.5233 6.7131 81.7031 6.53954C82.7271 6.07943 83.7014 5.51583 84.6109 4.85751ZM82.0832 15.1705C82.5786 15.1705 82.9325 15.162 83.1448 15.145C83.3571 15.1291 83.6459 15.0962 84.0047 15.0463L85.0663 14.8976C85.4202 14.8474 85.8498 14.773 86.3551 14.6746L86.6364 14.6417C86.7846 14.6477 86.9304 14.6812 87.0664 14.7405C87.1509 14.7776 87.2235 14.8374 87.276 14.9133C87.3285 14.9893 87.3588 15.0783 87.3636 15.1705C87.3537 15.2992 87.3014 15.4209 87.215 15.5167C87.1498 15.6154 87.0653 15.6999 86.9666 15.7652C86.1407 16.0292 85.3147 16.2494 84.4888 16.4257C83.7125 16.5965 82.9204 16.6851 82.1256 16.6901C81.9879 16.6678 81.857 16.6147 81.7426 16.5347C81.6283 16.4547 81.5335 16.3499 81.4653 16.2282L81.426 15.9287C81.4349 15.761 81.4802 15.5972 81.5587 15.4487C81.7738 15.2764 82.0298 15.1626 82.3019 15.1185L82.0832 15.1705ZM84.9102 1.966C85.1526 2.01742 85.3723 2.14461 85.5377 2.32917L85.5876 2.70932L85.5377 3.00771C85.3388 3.23779 85.1297 3.35318 84.9102 3.35389H82.5471C82.3157 3.35389 82.1009 3.23849 81.9027 3.00771L81.8507 2.70932L81.8995 2.32917L82.1808 2.09874C82.2916 2.0304 82.4152 1.98524 82.5439 1.966H84.9102ZM93.7822 7.27542C93.9513 7.26719 94.1203 7.29292 94.2793 7.3511C94.4383 7.40928 94.584 7.49873 94.7079 7.61416C94.9379 7.83928 95.0533 8.15785 95.054 8.56986V13.0298C95.054 13.4821 94.9439 13.8361 94.7238 14.0917C94.5037 14.3472 94.1898 14.4736 93.7822 14.4708H85.2075C84.7998 14.4708 84.4814 14.3497 84.252 14.1076C84.0227 13.8655 83.9099 13.5073 83.9134 13.033V8.57305C83.9134 7.71292 84.343 7.28321 85.2022 7.28392L93.7822 7.27542ZM95.3513 2.11891C95.518 2.1116 95.6845 2.13949 95.8398 2.20078C95.9951 2.26207 96.1357 2.35538 96.2526 2.47464C96.3691 2.60382 96.459 2.75473 96.5171 2.91873C96.5752 3.08273 96.6004 3.25659 96.5912 3.43034C96.5686 3.59458 95.9847 4.18923 94.8396 5.21431L94.5752 5.33005L94.3438 5.36297L94.1654 5.32049C93.9493 5.18994 93.7813 4.99285 93.6866 4.75876C93.684 4.65663 93.7024 4.55505 93.7408 4.46037C93.7997 4.34066 93.8747 4.22955 93.9637 4.13012L94.1952 3.89863L94.4595 3.56839H91.5517C92.3034 4.54957 93.3993 5.27165 94.8396 5.73463L96.8057 6.13177C97.0151 6.25325 97.1867 6.43042 97.3014 6.6436L97.2685 6.97491C97.2584 7.10692 97.1993 7.23038 97.1029 7.32108C96.9492 7.43779 96.7647 7.50684 96.5721 7.51966L96.3948 7.48568C93.7762 6.92429 91.8706 6.02629 90.678 4.79168C90.0967 5.35582 89.4339 5.82939 88.7119 6.19655C87.9762 6.53988 87.1984 6.78446 86.3986 6.92394C86.2827 6.92327 86.1683 6.89781 86.063 6.84928C85.9577 6.80074 85.864 6.73026 85.7882 6.64254C85.722 6.5202 85.6826 6.38519 85.6725 6.24646L85.7054 5.98205C85.8041 5.81639 85.992 5.67941 86.267 5.56898C87.3456 5.44792 88.386 5.00158 89.3881 4.22994C89.5209 4.1641 89.6865 3.94323 89.8839 3.56945H87.7023C87.3265 3.99409 86.8719 4.34174 86.3636 4.5931C86.2154 4.68802 86.0438 4.73986 85.8678 4.74283L85.6555 4.69292C85.5504 4.63438 85.4592 4.55393 85.3879 4.457C85.3167 4.36008 85.2671 4.24896 85.2425 4.13118C85.2425 3.94323 85.3413 3.74041 85.5398 3.51954C85.9359 3.24479 86.3065 2.93488 86.6471 2.59358C87.0373 2.19518 87.3925 1.76387 87.7087 1.30445C87.9113 1.17768 88.1349 1.08814 88.369 1.04004C88.4684 1.0819 88.5613 1.13767 88.645 1.20569L88.8924 1.45417V1.66655C88.8924 1.89804 88.8648 2.04671 88.8106 2.11254L95.3513 2.11891ZM85.3232 12.5307V12.7123C85.3232 12.9246 85.5154 13.0478 85.9018 13.0924H93.072C93.4021 13.0595 93.6028 12.9321 93.6665 12.7123V12.5307H85.3232ZM85.354 9.2208V9.33654H93.6665V9.2208C93.6402 9.076 93.5683 8.9434 93.4614 8.84234C93.3544 8.74129 93.218 8.67707 93.072 8.65906H85.9347C85.5929 8.70791 85.3997 8.89055 85.354 9.2208ZM85.354 10.7074V11.2033H93.6665V10.7074H85.354ZM97.0679 15.5656C97.2556 15.7307 97.3978 15.9413 97.4809 16.1772C97.4346 16.4274 97.3135 16.6577 97.1337 16.8377C96.9951 16.906 96.8423 16.9402 96.6878 16.9375L96.3693 16.8876L92.4212 15.6643C92.2217 15.5021 92.0868 15.2739 92.0411 15.0208C92.0427 14.9424 92.0721 14.8672 92.1239 14.8084L92.3713 14.561L92.7015 14.544L93.1155 14.561C93.6873 14.67 94.3204 14.8187 95.0147 15.007L97.0679 15.5656Z" fill="#231815"/>
<path d="M103.034 7.40254H104.935C105.054 7.43878 105.17 7.48459 105.282 7.53952C105.389 7.59855 105.484 7.67706 105.562 7.77101L105.612 8.15011L105.562 8.44849C105.404 8.64146 105.181 8.77048 104.935 8.81166H103.034C103.763 9.65073 104.547 10.4401 105.381 11.1744L105.43 11.5715L105.381 11.9017C105.194 12.1555 104.978 12.2819 104.736 12.2819C104.61 12.2729 104.489 12.2332 104.382 12.1662C104.27 12.0924 104.172 12.0001 104.092 11.8932C103.704 11.4755 103.349 11.0282 103.03 10.5553V16.058C103.02 16.1818 102.986 16.3026 102.929 16.4132C102.873 16.5238 102.795 16.6221 102.7 16.7025L102.303 16.7684C102.18 16.7621 102.058 16.74 101.94 16.7025C101.84 16.6271 101.758 16.5299 101.701 16.4182C101.643 16.3066 101.612 16.1834 101.61 16.058V11.0437C101.09 11.9574 100.458 12.8015 99.7264 13.5562C99.5502 13.7869 99.3463 13.9023 99.1149 13.9023C98.8176 13.9023 98.6074 13.7866 98.4864 13.5562C98.4329 13.4473 98.3994 13.3297 98.3877 13.2089C98.3921 13.0815 98.4259 12.9569 98.4864 12.8447C99.5449 11.5963 100.475 10.2444 101.263 8.80954H99.1191C98.994 8.79965 98.8726 8.76191 98.7638 8.69908C98.6551 8.63625 98.5618 8.54991 98.4907 8.44637C98.4316 8.35756 98.3975 8.2545 98.3919 8.14798C98.4 8.01642 98.4335 7.88767 98.4907 7.76889C98.5556 7.67194 98.6439 7.59303 98.7476 7.53952C98.8651 7.47931 98.99 7.43469 99.1191 7.40679H101.614V1.84995C101.614 1.63757 101.72 1.43687 101.944 1.2383L102.307 1.18945L102.704 1.2383C102.882 1.39753 102.999 1.61384 103.034 1.84995V7.40254ZM100.507 2.82476C100.594 3.10084 100.715 3.54436 100.87 4.1553C101.024 4.76623 101.145 5.25364 101.234 5.61751V5.70034C101.239 5.8088 101.218 5.91692 101.174 6.01598C101.13 6.11503 101.062 6.20224 100.978 6.27057C100.84 6.39795 100.661 6.47306 100.474 6.48295C100.377 6.44802 100.278 6.42034 100.177 6.40012C100.065 6.3411 99.9678 6.25891 99.8909 6.15908C99.814 6.05926 99.7593 5.94411 99.7306 5.82139L98.9535 3.25482C98.8964 3.13567 98.8628 3.00657 98.8548 2.87466C98.8703 2.71141 98.921 2.55346 99.0034 2.41168C99.1997 2.21445 99.4551 2.0869 99.7306 2.04852C99.9904 2.13666 100.22 2.29731 100.391 2.5115L100.507 2.82476ZM103.447 5.43593C103.624 5.06214 103.822 4.59952 104.043 4.04805C104.264 3.49657 104.445 3.00634 104.588 2.57734C104.663 2.45839 104.769 2.36095 104.893 2.29437C105.017 2.2278 105.157 2.19433 105.298 2.19718C105.556 2.26234 105.787 2.4068 105.959 2.61025C105.998 2.74434 106.014 2.88389 106.008 3.02333C106.004 3.20936 105.971 3.39363 105.909 3.56914C105.596 4.39216 105.226 5.19259 104.802 5.96475C104.615 6.21889 104.428 6.36048 104.24 6.3895L103.927 6.42242C103.841 6.42801 103.754 6.41144 103.676 6.37427C103.598 6.33711 103.531 6.28058 103.48 6.21004C103.454 6.14077 103.432 6.06983 103.414 5.99767C103.399 5.94387 103.388 5.8888 103.382 5.83307L103.447 5.50177V5.43593ZM112.402 11.1213L113.378 10.9726H113.575C113.667 10.9693 113.758 10.9775 113.848 10.997C113.934 11.0267 114.014 11.0685 114.088 11.1213C114.205 11.3049 114.273 11.5155 114.285 11.7329C114.198 12.0302 114.038 12.2228 113.807 12.3106L112.402 12.5229V15.7086C112.351 15.9429 112.23 16.1561 112.055 16.3202C111.929 16.372 111.795 16.4001 111.659 16.4031C111.539 16.3982 111.421 16.3701 111.312 16.3202C111.211 16.2529 111.128 16.162 111.071 16.0554C111.013 15.9488 110.983 15.8297 110.982 15.7086V12.7428L106.239 13.5031L105.921 13.553C105.789 13.564 105.658 13.5224 105.557 13.4372C105.457 13.3741 105.375 13.286 105.319 13.1815C105.263 13.0771 105.235 12.9599 105.238 12.8415L105.254 12.7757C105.268 12.6542 105.314 12.5384 105.386 12.4399C105.458 12.3414 105.555 12.2635 105.667 12.2139L110.975 11.288V2.16426C110.979 2.04138 111.011 1.92102 111.068 1.81217C111.126 1.70332 111.207 1.60879 111.305 1.53563L111.653 1.50271L112.049 1.53563C112.218 1.71087 112.337 1.92775 112.396 2.16426L112.402 11.1213ZM107.065 6.21323C107.968 6.99194 108.795 7.6804 109.544 8.27859C109.82 8.5207 109.957 8.78511 109.957 9.07182C109.947 9.21386 109.904 9.35169 109.833 9.4748C109.761 9.59792 109.663 9.70306 109.544 9.78222C109.423 9.83473 109.295 9.86839 109.164 9.88204C109.011 9.87691 108.862 9.82464 108.74 9.73231C108.007 9.02059 107.222 8.36364 106.393 7.76676C106.008 7.46802 105.815 7.17034 105.816 6.87372C105.816 6.63161 105.937 6.41074 106.179 6.21323C106.31 6.16039 106.45 6.13231 106.592 6.1304L106.91 6.17925L107.065 6.21323ZM107.908 2.61025C108.691 3.28278 109.176 3.69585 109.363 3.84947C109.484 3.94929 109.753 4.15884 110.172 4.47811C110.229 4.55854 110.279 4.64423 110.32 4.73402C110.379 4.86546 110.428 5.00062 110.469 5.1386C110.435 5.26351 110.374 5.37971 110.292 5.47949C110.209 5.57926 110.106 5.66034 109.99 5.71733L109.71 5.76617C109.559 5.76737 109.412 5.71467 109.296 5.61751C108.922 5.34284 108.52 5.0317 108.09 4.68411C107.66 4.33652 107.235 3.97584 106.816 3.60205C106.713 3.53381 106.629 3.44 106.574 3.32981C106.518 3.21962 106.492 3.09681 106.497 2.97342L106.514 2.92457C106.518 2.81486 106.559 2.70965 106.63 2.62618C106.718 2.51831 106.826 2.42852 106.949 2.36177L107.179 2.31293C107.371 2.32693 107.557 2.38313 107.725 2.47752L107.908 2.61025Z" fill="#231815"/>
<path d="M121.131 1.15536C121.538 1.15536 121.857 1.26579 122.086 1.48667C122.315 1.70754 122.431 2.0215 122.433 2.42856V5.99755C122.433 6.8683 121.998 7.30367 121.127 7.30367H117.245V16.1407C117.203 16.3767 117.092 16.595 116.927 16.7682L116.546 16.8012L116.2 16.7682C116.101 16.6954 116.02 16.6011 115.963 16.4924C115.905 16.3838 115.873 16.2635 115.869 16.1407V2.42856C115.869 2.03141 115.975 1.72028 116.188 1.4941C116.4 1.26792 116.718 1.15536 117.121 1.15536H121.131ZM117.248 3.10604V3.60194H121.015V3.10604C120.982 2.79809 120.795 2.61014 120.453 2.5443H117.84C117.485 2.61014 117.287 2.79809 117.243 3.10604H117.248ZM117.248 4.97283V5.8988H120.453C120.795 5.8988 120.982 5.71155 121.015 5.33706V4.97283H117.248ZM118.554 9.41894C118.43 9.42236 118.308 9.39181 118.2 9.3306C118.092 9.2694 118.003 9.17987 117.942 9.07171C117.885 8.9758 117.856 8.86511 117.86 8.75314C117.856 8.62699 117.884 8.50194 117.942 8.38998C118.014 8.28947 118.105 8.20415 118.21 8.13891C118.315 8.07367 118.432 8.02981 118.554 8.00982H127.773C128.014 8.07516 128.231 8.2069 128.4 8.38998L128.433 8.75314L128.4 9.07171C128.202 9.3032 127.992 9.41894 127.773 9.41894H125.923V10.8567H128.45C128.691 10.9114 128.91 11.038 129.078 11.2199L129.095 11.6001L129.078 11.8974C128.865 12.1402 128.656 12.2616 128.45 12.2616H125.923V15.8964C125.894 16.1305 125.775 16.3441 125.591 16.4922C125.465 16.5407 125.331 16.5631 125.195 16.558C125.082 16.5595 124.97 16.537 124.865 16.4922C124.764 16.4292 124.68 16.3414 124.623 16.2372C124.565 16.133 124.534 16.0157 124.534 15.8964V12.2616H121.676C121.685 12.8133 121.636 13.3643 121.528 13.9054C121.449 14.3034 121.306 14.6859 121.103 15.0374C120.9 15.3461 120.671 15.6364 120.417 15.9049C120.206 16.1329 119.964 16.3305 119.698 16.4922C119.617 16.5436 119.532 16.5877 119.443 16.6238C119.38 16.6372 119.316 16.6429 119.253 16.6408L119.005 16.5909C118.784 16.5357 118.636 16.3704 118.559 16.095L118.542 16.0122C118.548 15.79 118.636 15.5779 118.79 15.4175C119.418 14.922 119.903 14.1949 120.244 13.2364L120.294 12.2616H118.014C117.772 12.2616 117.568 12.1402 117.402 11.8974C117.349 11.8062 117.315 11.7049 117.303 11.6001C117.306 11.5383 117.317 11.4773 117.336 11.4185C117.355 11.3512 117.377 11.2849 117.402 11.2199C117.554 11.0276 117.772 10.8983 118.014 10.8567H120.281V9.41894H118.554ZM124.534 9.41894H121.676V10.8567H124.528L124.534 9.41894ZM124.981 7.40136C124.121 7.40136 123.691 6.96634 123.692 6.09631V2.42856C123.692 1.57905 124.122 1.1543 124.981 1.1543H129.375C129.772 1.1543 130.086 1.26473 130.317 1.4856C130.547 1.70648 130.663 2.02044 130.664 2.4275V15.2359C130.432 15.9849 129.871 16.4256 128.979 16.558H128.846C128.163 16.5619 127.485 16.4388 126.847 16.1948C126.747 16.1275 126.664 16.0366 126.606 15.93C126.549 15.8234 126.518 15.7043 126.517 15.5832C126.516 15.4601 126.55 15.3391 126.614 15.2341C126.678 15.129 126.77 15.0439 126.88 14.9885C126.98 14.9411 127.089 14.9182 127.199 14.9216C127.323 14.918 127.447 14.9408 127.562 14.9885C127.721 15.0519 127.884 15.1069 128.049 15.1531C128.166 15.1775 128.285 15.1886 128.405 15.186C128.629 15.1883 128.849 15.1191 129.032 14.9885C129.081 14.9292 129.12 14.8621 129.148 14.79C129.193 14.6864 129.232 14.58 129.264 14.4714V7.40242L124.981 7.40136ZM125.096 3.17082V3.6338H129.259V3.17188C129.204 2.81792 129.012 2.60872 128.682 2.5443H125.674C125.285 2.61014 125.09 2.81933 125.09 3.17188L125.096 3.17082ZM125.096 5.02168V5.43475C125.096 5.80995 125.289 5.9972 125.674 5.99649H129.259V5.02274L125.096 5.02168Z" fill="#231815"/>
<path d="M135.416 1.91186C135.416 1.69948 135.527 1.49029 135.747 1.28428L136.078 1.23438L136.474 1.28428C136.634 1.46272 136.748 1.67844 136.804 1.91186V3.25514H139.246C139.495 3.30306 139.725 3.42389 139.906 3.60238L139.923 3.76697C139.919 3.83479 139.93 3.90265 139.956 3.96554C139.961 4.06712 139.944 4.16866 139.906 4.26287C139.833 4.37208 139.735 4.46218 139.62 4.52557C139.505 4.58896 139.377 4.62378 139.246 4.6271H135.53V6.49389H137.972C138.809 6.49389 139.228 6.91864 139.228 7.76815V10.5609C139.228 14.1189 138.567 16.0965 137.246 16.4937L136.32 16.5425L135.444 16.4937C135.322 16.4629 135.208 16.4034 135.113 16.3198C135.019 16.2363 134.945 16.1314 134.899 16.0137L134.867 15.7822C134.868 15.6775 134.896 15.575 134.949 15.4849L135.064 15.3033C135.266 15.154 135.497 15.0474 135.741 14.99H136.697C137.051 14.99 137.34 14.7886 137.564 14.3858C137.789 13.983 137.901 13.3965 137.903 12.6263V8.28316C137.87 7.97522 137.677 7.78726 137.325 7.72143H135.462C135.464 8.57316 135.414 9.42422 135.314 10.2699C135.214 11.0825 135.054 11.8864 134.835 12.6751C134.492 13.9728 133.975 15.218 133.298 16.3768C133.141 16.4975 132.95 16.5665 132.753 16.5744H132.637C132.406 16.5411 132.246 16.3924 132.157 16.1284L132.109 15.9468C132.105 15.8682 132.116 15.7898 132.141 15.7153L132.273 15.4509C132.804 14.3702 133.231 13.2412 133.547 12.0794C133.727 11.3638 133.864 10.6384 133.96 9.90678C134.058 9.1643 134.108 8.41621 134.109 7.66727V4.74284H133.398C133.269 4.74301 133.142 4.70767 133.031 4.64064C132.92 4.57361 132.83 4.47748 132.77 4.36269C132.705 4.26897 132.671 4.15787 132.671 4.04412L132.704 3.81263L132.77 3.60025C132.83 3.50718 132.913 3.43055 133.01 3.37726C133.13 3.31138 133.262 3.2692 133.398 3.25302H135.415L135.416 1.91186ZM147.114 3.25089C147.346 3.30815 147.557 3.42832 147.725 3.59813L147.775 3.96129L147.725 4.25862C147.538 4.50215 147.335 4.62356 147.114 4.62285L146.569 4.68868C146.579 6.19951 146.39 7.70506 146.007 9.16665C145.665 10.4203 145.177 11.6295 144.553 12.7696C145.518 13.8311 146.645 14.7344 147.89 15.4466C148.072 15.5841 148.196 15.7844 148.238 16.0084C148.162 16.2834 147.999 16.5268 147.775 16.7028L147.35 16.7358C147.228 16.7432 147.105 16.7321 146.986 16.7028C146.391 16.3519 145.819 15.9617 145.276 15.5348C144.666 15.0591 144.09 14.5429 143.55 13.9897C142.587 14.9035 141.51 15.689 140.346 16.3269C140.206 16.3933 140.054 16.4326 139.9 16.4427C139.775 16.446 139.651 16.4236 139.536 16.3768C139.439 16.3348 139.351 16.2732 139.279 16.1961C139.207 16.1189 139.151 16.0278 139.116 15.9282C139.08 15.8287 139.065 15.7229 139.072 15.6175C139.079 15.512 139.107 15.409 139.156 15.315C139.235 15.1881 139.336 15.0763 139.454 14.9847C139.702 14.882 139.944 14.7661 140.18 14.6375C140.465 14.4818 140.74 14.3106 141.006 14.1246C141.624 13.6966 142.219 13.2355 142.787 12.7431C142.203 11.4214 141.653 9.6091 141.135 7.30623C140.937 7.75788 140.716 8.08282 140.474 8.28104C140.316 8.37031 140.142 8.42667 139.962 8.44669L139.698 8.39678C139.574 8.33974 139.467 8.25227 139.386 8.14254C139.305 8.03281 139.253 7.90438 139.235 7.76921L139.219 7.66939C139.219 7.47082 139.325 7.268 139.538 7.05775C139.926 6.38789 140.228 5.67187 140.438 4.92655C140.678 4.06673 140.842 3.1872 140.926 2.29838C140.928 2.17043 140.958 2.04445 141.015 1.93001C141.072 1.81556 141.155 1.71566 141.256 1.63789C141.397 1.57653 141.549 1.54265 141.702 1.53807L142.049 1.60497C142.226 1.7147 142.363 1.91292 142.462 2.19963V2.51819L142.405 3.29231L142.455 3.25939L147.114 3.25089ZM145.131 4.62285H142.208L142.289 4.68868C142.293 5.90853 142.443 7.12354 142.736 8.30759C142.868 8.84844 143.014 9.35814 143.174 9.8367C143.334 10.3153 143.546 10.8632 143.811 11.4805C144.023 10.9736 144.207 10.4586 144.364 9.93545C144.535 9.37291 144.676 8.80191 144.788 8.22476C145.024 7.04024 145.139 5.83484 145.131 4.6271V4.62285Z" fill="#231815"/>
<path d="M163.206 1.63545C163.442 1.68296 163.656 1.80464 163.818 1.98268L163.867 2.34585L163.818 2.64318C163.62 2.89732 163.416 3.02404 163.206 3.02333H157.92V9.81939H164.297C164.488 9.83324 164.674 9.88985 164.841 9.98504C164.864 10.0912 164.888 10.208 164.917 10.3238C164.94 10.4131 164.953 10.5046 164.957 10.5967L164.941 10.8091C164.841 10.9853 164.616 11.1276 164.264 11.2221H157.92V15.6513C157.886 15.8881 157.768 16.105 157.588 16.2629C157.482 16.2841 157.388 16.3043 157.317 16.3202C157.276 16.3312 157.234 16.3397 157.192 16.3457C157.133 16.3468 157.075 16.3382 157.018 16.3202C156.969 16.3043 156.912 16.2841 156.862 16.2629C156.758 16.1983 156.671 16.1084 156.61 16.0015C156.55 15.8946 156.517 15.7742 156.515 15.6513V11.22H149.955C149.83 11.2197 149.708 11.1859 149.6 11.122C149.493 11.0581 149.405 10.9665 149.345 10.8569C149.288 10.7594 149.254 10.6506 149.245 10.5383C149.262 10.4185 149.296 10.3016 149.345 10.191C149.5 9.99981 149.715 9.866 149.955 9.81089H156.515V3.01484H150.451C150.335 3.01342 150.221 2.98236 150.12 2.92458C150.019 2.86679 149.934 2.7842 149.874 2.68459C149.817 2.60198 149.788 2.50341 149.791 2.40319C149.793 2.27224 149.821 2.14302 149.874 2.02304C149.963 1.93251 150.059 1.84974 150.162 1.77562C150.256 1.70975 150.359 1.65953 150.468 1.62695L163.206 1.63545ZM150.255 8.0471C151.047 7.08787 152.028 5.73821 153.195 3.99814C153.378 3.82417 153.621 3.72914 153.873 3.73373H153.956C154.231 3.84606 154.459 4.05064 154.6 4.31246C154.606 4.59165 154.518 4.86483 154.352 5.0887L153.244 6.65922C152.65 7.47475 152.116 8.18515 151.642 8.79042C151.378 9.05448 151.168 9.18686 151.014 9.18757L150.981 9.15465C150.957 9.16348 150.932 9.16885 150.907 9.17058C150.871 9.17396 150.835 9.17963 150.8 9.18757C150.686 9.18249 150.574 9.15339 150.472 9.10216C150.369 9.05094 150.279 8.97873 150.206 8.89024C150.143 8.7839 150.104 8.66559 150.09 8.543C150.092 8.46694 150.106 8.39166 150.132 8.32001C150.163 8.22528 150.204 8.13388 150.254 8.0471H150.255ZM162.926 8.74158C162.519 8.21276 162.144 7.7388 161.803 7.31971C161.737 7.24326 161.076 6.43906 159.82 4.90711C159.763 4.83934 159.716 4.76435 159.68 4.68412C159.643 4.60927 159.624 4.52735 159.622 4.44413C159.621 4.33925 159.649 4.23607 159.704 4.1468C159.767 4.03024 159.854 3.92855 159.959 3.84866C160.065 3.76877 160.186 3.71255 160.316 3.68382C160.559 3.73303 160.787 3.84256 160.977 4.00239C161.756 4.89579 162.334 5.57327 162.712 6.03483C163.207 6.64152 163.686 7.26981 164.149 7.91968C164.186 8.01065 164.217 8.10438 164.239 8.20002C164.262 8.28105 164.276 8.36439 164.281 8.4485L164.265 8.61309C164.196 8.73437 164.103 8.84068 163.993 8.92582C163.882 9.01096 163.755 9.07322 163.62 9.10899L163.538 9.12598C163.317 9.12598 163.125 9.01979 162.959 8.79467L162.926 8.74158Z" fill="#231815"/>
<path d="M180.719 8.94023C181.237 9.13774 181.496 9.50657 181.496 10.0467V10.2283L181.215 11.0056C181.194 11.1073 181.144 11.2006 181.07 11.274C180.997 11.3475 180.904 11.3977 180.802 11.4187L180.59 11.4516C180.51 11.4492 180.432 11.4323 180.358 11.4017L180.177 11.3358C180.11 11.2825 180.056 11.2147 180.019 11.1374C179.982 11.0601 179.964 10.9754 179.964 10.8898L179.998 10.7412C180.046 10.5904 180.079 10.4353 180.097 10.2782C180.095 10.2271 180.084 10.1767 180.064 10.1295H168.444C168.058 10.1628 167.865 10.3115 167.865 10.5755V11.1213C167.818 11.3252 167.701 11.5062 167.535 11.6332C167.405 11.6936 167.265 11.7276 167.122 11.733C167.007 11.7189 166.895 11.6851 166.792 11.6332C166.697 11.5801 166.615 11.5066 166.552 11.4181C166.489 11.3296 166.447 11.2283 166.428 11.1213V10.1656C166.428 9.35012 166.863 8.94271 167.734 8.94341L180.719 8.94023ZM174.921 12.9754L174.788 13.1241V13.3364L174.921 13.3863H178.67C178.902 13.4137 179.117 13.5185 179.281 13.6837C179.332 13.7981 179.36 13.9215 179.364 14.0468C179.362 14.1581 179.333 14.2673 179.281 14.3654C179.213 14.4486 179.127 14.5156 179.03 14.5614C178.933 14.6071 178.827 14.6305 178.719 14.6298L178.67 14.6139H174.903L174.787 14.7286V15.1427L174.903 15.2415H180.917C181.156 15.2955 181.378 15.4091 181.561 15.5717L181.594 15.869L181.561 16.1876C181.33 16.4 181.115 16.5062 180.917 16.5062H167.238C167.11 16.5113 166.982 16.4858 166.866 16.4318C166.772 16.3808 166.694 16.3033 166.643 16.2088C166.588 16.1073 166.559 15.9932 166.56 15.8775C166.556 15.7744 166.579 15.672 166.626 15.5802C166.747 15.4152 166.951 15.3052 167.238 15.2499H173.302L173.433 15.1512V14.7371L173.302 14.6224H169.072L168.989 14.6383C168.884 14.64 168.78 14.617 168.685 14.571C168.59 14.5251 168.508 14.4576 168.444 14.3739C168.379 14.2803 168.345 14.1691 168.345 14.0553C168.347 13.9279 168.381 13.8029 168.444 13.6922C168.577 13.5265 168.786 13.4274 169.072 13.3948H173.302L173.433 13.3449V13.1325L173.302 13.0327L168.262 13.1325L168.196 13.1485C168.137 13.1489 168.078 13.134 168.026 13.1052C167.974 13.0763 167.93 13.0346 167.899 12.9839C167.853 12.8663 167.82 12.7443 167.799 12.6197C167.797 12.584 167.801 12.5482 167.812 12.5143C167.824 12.4804 167.842 12.449 167.865 12.4221C167.886 12.3581 167.923 12.3003 167.972 12.2541C168.021 12.2079 168.081 12.1748 168.146 12.1577L170.575 12.1248C170.594 12.1294 170.613 12.1294 170.632 12.125C170.65 12.1206 170.667 12.1118 170.682 12.0993C170.722 12.0696 170.758 12.0338 170.788 11.9931L170.821 11.9103V11.7457L170.788 11.6459H168.855C168.737 11.6514 168.619 11.6305 168.511 11.5848C168.402 11.539 168.305 11.4696 168.227 11.3815C168.174 11.2903 168.14 11.1891 168.127 11.0842C168.136 10.968 168.17 10.8552 168.227 10.7539C168.394 10.5823 168.616 10.4767 168.855 10.4566H179.065C179.317 10.483 179.548 10.6074 179.71 10.8028C179.767 10.9095 179.795 11.0291 179.792 11.15C179.799 11.2507 179.77 11.3504 179.71 11.4314C179.592 11.5355 179.442 11.5943 179.285 11.5971L179.021 11.5472L180.392 12.3075C180.447 12.3473 180.492 12.3994 180.524 12.4597C180.555 12.5199 180.573 12.5867 180.574 12.6547L180.558 12.8193C180.514 12.9242 180.446 13.0175 180.36 13.092C180.274 13.1666 180.172 13.2204 180.062 13.2494L179.996 13.2653C179.925 13.2655 179.854 13.2602 179.784 13.2494C179.655 13.2196 179.528 13.1809 179.404 13.1336L178.545 12.7704H178.446L178.248 12.8193L174.921 12.9754ZM173.053 2.11444L173.037 2.06453C173.037 1.85215 173.144 1.68437 173.368 1.5527C173.488 1.50491 173.618 1.4825 173.748 1.48686C173.877 1.4867 174.006 1.50898 174.128 1.5527C174.292 1.70204 174.407 1.89799 174.458 2.11444V2.21319L174.574 2.31301H180.223C180.45 2.35904 180.655 2.48162 180.802 2.66025C180.859 2.76688 180.888 2.88652 180.885 3.00748C180.89 3.05229 180.886 3.09776 180.871 3.14058C180.857 3.18339 180.833 3.22245 180.802 3.2549C180.74 3.35181 180.654 3.43167 180.553 3.48728C180.452 3.54288 180.339 3.5725 180.223 3.57347H174.574L174.458 3.67222V4.13096L174.574 4.22971H179.216C179.449 4.28351 179.672 4.37268 179.877 4.49412L179.91 4.87427L179.877 5.15567C179.794 5.25069 179.693 5.3279 179.579 5.38266C179.466 5.43741 179.342 5.46856 179.216 5.47424H168.494C168.376 5.47497 168.26 5.4462 168.156 5.39056C168.052 5.33492 167.964 5.25417 167.899 5.15567C167.842 5.07238 167.807 4.97526 167.799 4.87427C167.807 4.74223 167.841 4.61306 167.899 4.49412C168.078 4.36691 168.28 4.27698 168.494 4.22971H172.922L173.053 4.13096V3.66797L172.922 3.56922H167.417C167.294 3.57489 167.171 3.54852 167.061 3.49269C166.951 3.43685 166.858 3.35347 166.79 3.25065C166.757 3.21839 166.731 3.1798 166.714 3.13725C166.697 3.09471 166.689 3.0491 166.69 3.00323C166.702 2.8824 166.736 2.76475 166.79 2.656C166.947 2.46479 167.172 2.34065 167.417 2.30876H172.92L173.051 2.20894L173.053 2.11444ZM169.254 8.576C168.373 8.576 167.932 8.10771 167.932 7.17113V7.03946C168.008 6.26853 168.449 5.88271 169.254 5.882H178.458C178.855 5.882 179.163 5.98819 179.384 6.20057C179.495 6.30999 179.582 6.44164 179.639 6.58692C179.696 6.7322 179.721 6.88785 179.714 7.0437V7.17538C179.714 8.11196 179.295 8.58025 178.458 8.58025L169.254 8.576ZM169.667 7.55128H178.208L178.34 7.43554V7.13821L178.208 7.03946H169.667L169.551 7.13821V7.43342L169.667 7.55128ZM172.442 12.1174L177.25 11.9847L176.804 11.6374H172.855L172.642 11.6873L172.444 12.0346L172.442 12.1174Z" fill="#231815"/>
<path d="M48.0317 21.2373H51.2867C52.0202 21.2373 52.5808 21.2936 52.9651 21.4061C53.4731 21.5531 53.9324 21.8337 54.2953 22.2185C54.6761 22.6283 54.9634 23.116 55.1371 23.6478C55.3289 24.2141 55.4252 24.9093 55.4259 25.7333C55.4393 26.3697 55.3479 27.004 55.1552 27.6107C54.9681 28.1979 54.6443 28.7322 54.2104 29.1696C53.8533 29.4976 53.4253 29.7385 52.9598 29.8736C52.5655 29.9975 52.0401 30.0594 51.3833 30.0594H48.0317V21.2373ZM49.8131 22.7303V28.5707H51.1423C51.5031 28.5827 51.8642 28.5542 52.2188 28.4857C52.4853 28.4252 52.7327 28.2993 52.9385 28.1194C53.1282 27.9466 53.2836 27.6635 53.4046 27.2699C53.5256 26.8763 53.5858 26.3375 53.5851 25.6537C53.5851 24.972 53.5249 24.4484 53.4046 24.0832C53.31 23.7606 53.1363 23.4667 52.8993 23.2283C52.6679 23.0164 52.3824 22.8727 52.0744 22.8131C51.826 22.7565 51.3387 22.7285 50.6125 22.7293L49.8131 22.7303Z" fill="#BABABA"/>
<path d="M64.8903 30.0626H62.9539L62.1831 28.0588H58.6564L57.9292 30.0626H56.0396L59.4749 21.2373H61.3614L64.8903 30.0626ZM61.6109 26.5722L60.3954 23.2995L59.2042 26.5722H61.6109Z" fill="#BABABA"/>
<path d="M66.9055 30.0626V22.7356H64.2886V21.2373H71.2952V22.7303H68.6869V30.0573L66.9055 30.0626Z" fill="#BABABA"/>
<path d="M79.4854 30.0626H77.5479L76.7783 28.0588H73.2516L72.5233 30.0626H70.6357L74.0711 21.2373H75.9534L79.4854 30.0626ZM76.2071 26.5722L74.9916 23.2995L73.8004 26.5722H76.2071Z" fill="#BABABA"/>
<path d="M80.4185 30.0626V28.3721H82.1085V30.0626H80.4185Z" fill="#BABABA"/>
<path d="M87.956 26.8197V25.333H91.7948V28.8479C91.4225 29.2089 90.8822 29.5275 90.1737 29.8036C89.4888 30.0741 88.7593 30.2138 88.0229 30.2156C87.1028 30.2156 86.2984 30.022 85.6098 29.6347C84.933 29.2573 84.3922 28.6762 84.0641 27.974C83.7166 27.2391 83.5405 26.4348 83.5492 25.6219C83.5334 24.77 83.7324 23.9278 84.1278 23.1732C84.5073 22.4634 85.0979 21.889 85.8179 21.5294C86.3841 21.2377 87.0879 21.0915 87.9295 21.0908C89.025 21.0908 89.8803 21.3205 90.4954 21.78C91.1126 22.2439 91.535 22.9212 91.6801 23.6797L89.9115 24.011C89.8019 23.5991 89.5546 23.2371 89.2108 22.9852C88.8345 22.7243 88.3839 22.5921 87.9263 22.6083C87.1477 22.6083 86.5292 22.856 86.0706 23.3516C85.6119 23.8471 85.3823 24.5791 85.3816 25.5475C85.3816 26.5946 85.6141 27.38 86.0791 27.9039C86.544 28.4277 87.1538 28.6893 87.9082 28.6886C88.2927 28.6865 88.6734 28.6119 89.0303 28.4688C89.3763 28.3393 89.7016 28.1604 89.9964 27.9379V26.8197H87.956Z" fill="#BABABA"/>
<path d="M93.0762 25.7057C93.0762 24.8074 93.2107 24.0534 93.4796 23.4439C93.6797 22.9952 93.9576 22.5854 94.3002 22.2334C94.6222 21.8941 95.0098 21.6239 95.4393 21.4391C96.0433 21.1965 96.69 21.078 97.3407 21.0908C98.6401 21.0908 99.6802 21.4939 100.461 22.3003C101.241 23.1066 101.631 24.2279 101.629 25.6643C101.629 27.0886 101.241 28.2029 100.467 29.0071C99.6929 29.8113 98.6582 30.2134 97.363 30.2134C96.0523 30.2134 95.0094 29.8134 94.2344 29.0135C93.4594 28.2135 93.0734 27.1109 93.0762 25.7057ZM94.9117 25.6463C94.9117 26.6451 95.1421 27.4023 95.6028 27.9176C95.8253 28.1604 96.0957 28.3544 96.397 28.4873C96.6983 28.6202 97.0238 28.6891 97.3531 28.6897C97.6824 28.6903 98.0082 28.6226 98.3099 28.4908C98.6117 28.359 98.8828 28.166 99.1062 27.924C99.5605 27.4122 99.7881 26.6448 99.7888 25.6218C99.7909 24.6102 99.5701 23.8566 99.1263 23.3611C98.6826 22.8655 98.0937 22.6178 97.3598 22.6178C96.6259 22.6178 96.0342 22.8698 95.5848 23.3738C95.1354 23.8779 94.91 24.6353 94.9085 25.6463H94.9117Z" fill="#BABABA"/>
<path d="M105.272 30.0626L102.119 21.2373H104.05L106.28 27.7668L108.442 21.2373H110.332L107.172 30.0594L105.272 30.0626Z" fill="#BABABA"/>
<path d="M110.097 30.0626V28.3721H111.788V30.0626H110.097Z" fill="#BABABA"/>
<path d="M115.518 30.0626V22.7356H112.901V21.2373H119.908V22.7303H117.296V30.0573L115.518 30.0626Z" fill="#BABABA"/>
<path d="M122.31 30.0626L120.204 21.2373H122.027L123.36 27.3007L124.969 21.2373H127.087L128.633 27.3962L129.986 21.2373H131.779L129.638 30.0594H127.749L125.992 23.4673L124.241 30.0626H122.31Z" fill="#BABABA"/>
</g>
<defs>
<clipPath id="clip0_1408_537">
<rect width="181.595" height="36" fill="white"/>
</clipPath>
</defs>
</svg>
