<svg xmlns="http://www.w3.org/2000/svg" viewBox="0 0 186.57 38"><defs><style>.cls-1{fill:#009e96;}.cls-2{fill:#080059;}.cls-3{fill:#fff;}.cls-4{fill:none;stroke:#080059;stroke-width:0.81px;}</style></defs><title>資產 1</title><g id="圖層_2" data-name="圖層 2"><polygon class="cls-1" points="38.15 3.37 0 3.37 0 22.48 1.95 22.48 1.95 34.76 17.54 22.48 20.31 22.48 35.9 34.76 35.9 22.48 38.15 22.48 38.15 3.37"/><path class="cls-2" d="M17.15,3.83V11.7H21V3.83l17.16,0V0H0V3.81Z"/><path class="cls-2" d="M34.31,8.35V30.84L21,22l-1.91-1.34L17.15,22,3.83,30.84V8.35H0V38L19.07,25.29,38.15,38V8.35Z"/><path class="cls-3" d="M7.33,15.45a2.71,2.71,0,0,1,2.23-.83h4.22v-.89h-3.4l-1.12,0c-.34,0-.73,0-1.14.07-1.41.12-2.9,1.13-2.61,2.7s2,2,3.43,2.11l1.43.1,1.21,0,1.05,0,.6,0a1.93,1.93,0,0,0,.39,0l.15,0V15.73H9.18v.86H12v1.28c-.57,0-1.12,0-1.62,0-1.15-.06-3.52-.28-3.16-2A1.16,1.16,0,0,1,7.33,15.45Z"/><path class="cls-3" d="M21.79,14.26a6.27,6.27,0,0,0-2.92-.54,6.65,6.65,0,0,0-3.19.74q-1.41.78-1.41,1.77A2.08,2.08,0,0,0,15.65,18a7.54,7.54,0,0,0,3.4.68,6.68,6.68,0,0,0,3.07-.67,2.06,2.06,0,0,0,1.34-1.77,1.66,1.66,0,0,0-.34-1A4.18,4.18,0,0,0,21.79,14.26ZM21,17.39a3.6,3.6,0,0,1-1.89.5,4.54,4.54,0,0,1-2.23-.49c-.58-.31-.86-.68-.86-1.14a1.44,1.44,0,0,1,.78-1.16,3.72,3.72,0,0,1,2.12-.54,3.65,3.65,0,0,1,2,.56,1.46,1.46,0,0,1,.82,1.16A1.35,1.35,0,0,1,21,17.39Z"/><path class="cls-3" d="M30.79,13.75,27.74,17.6l-3.2-3.85-2,0,.23.27,4,4.72h1.93l4-5Z"/><path class="cls-1" d="M61.76,2.64,63.45.92Q67,2.55,68.75,3.57L66.92,5.2A35.13,35.13,0,0,0,61.76,2.64ZM60.41,14.82A23.35,23.35,0,0,1,57.9,8H51.81v3.19a34.33,34.33,0,0,0,3.81-1.16L57,11.94a41.19,41.19,0,0,1-4.88,1.44l-.28.08v4.79a1.09,1.09,0,0,1-.34.85,3.1,3.1,0,0,1-1.18.7,12.15,12.15,0,0,1-5.75,0l-.08-2.22c2.08.43,3.46.5,4.14.22a.54.54,0,0,0,.31-.51V14.11c-1.62.34-3.28.66-5,1l-.87-2.26c2.31-.32,4.26-.63,5.86-1V8H43.55V5.88h5.36V3.63c-1.62.13-3.22.24-4.82.33l-.4-2.17A56.45,56.45,0,0,0,55.42.5l1,2c-1.38.3-2.91.55-4.6.76V5.88h5.75a37.16,37.16,0,0,1-.36-5L60.1,1a35.83,35.83,0,0,0,.25,4.85h8.37V8h-8a17.68,17.68,0,0,0,1.52,4.91.47.47,0,0,1,.14-.14A14.79,14.79,0,0,0,64.5,8.87l2.7.79a17,17,0,0,1-3.63,5.47c1.25,1.5,2.08,2.25,2.48,2.25.13,0,.22-.11.28-.28a10.57,10.57,0,0,0,.45-2.57l2.85.65q-.54,3.75-1.89,4.62a2.21,2.21,0,0,1-1,.34c-1.42,0-3.07-1.15-4.93-3.41A18.82,18.82,0,0,1,54.18,20l-1.47-2A17.22,17.22,0,0,0,60.41,14.82Z"/><path class="cls-1" d="M88.44,4.77a20.88,20.88,0,0,1-2,3.21l-2.12-.57v11.9c0,.21-.14.31-.42.31H73.44c-.26,0-.39-.1-.39-.31V3.47c0-.19.15-.28.39-.28H76.8A17.06,17.06,0,0,0,77.61.62l2.77.59c-.27.89-.48,1.55-.65,2h4.14c.28,0,.42.11.42.28V6.34A11.76,11.76,0,0,0,86.66.82l2.88.25c-.12.55-.24,1.06-.37,1.53h8.26a1.31,1.31,0,0,1,.53.08.68.68,0,0,1,.34.39q.28.74,0,9.08a12.29,12.29,0,0,1-1,5.1,5.08,5.08,0,0,1-2.39,2.26c-1.64.64-4.32.6-8.06-.12V17.05q5.2,1.17,6.68.43a2.58,2.58,0,0,0,1.07-1.19,12.59,12.59,0,0,0,.81-4.59,50.73,50.73,0,0,0,0-6.85A.46.46,0,0,0,95,4.77Zm-7,7.66H76v4.93c0,.08,0,.12.11.12h5.19c.09,0,.14-.06.14-.12ZM76,10.29h5.44V5.41a.13.13,0,0,0-.14-.08H76.06c-.07,0-.11,0-.11.08ZM87.39,7.64,90.13,7a61.83,61.83,0,0,1,3.35,7.19l-2.76.51A35.34,35.34,0,0,0,87.39,7.64Z"/><path class="cls-1" d="M110,11.65V16h15.28a1.93,1.93,0,0,0,1-.23,1.53,1.53,0,0,0,.57-.84h.63V20.4h-.63a1.43,1.43,0,0,0-.56-.82,1.87,1.87,0,0,0-1-.24H102.77v-.5a2.16,2.16,0,0,0,1.06-.41,1,1,0,0,0,.31-.77V2.85a.93.93,0,0,0-.3-.75,2.8,2.8,0,0,0-1.07-.45v-.5h21.82a2,2,0,0,0,1-.23,1.69,1.69,0,0,0,.57-.83h.56V5.53h-.56a1.63,1.63,0,0,0-.57-.84,2,2,0,0,0-1-.23H110v4H119a1.79,1.79,0,0,0,1-.23,1.61,1.61,0,0,0,.59-.83h.57v5.31h-.57a1.57,1.57,0,0,0-.57-.83,1.93,1.93,0,0,0-1-.23Z"/><path class="cls-1" d="M148.66,14.3a11.64,11.64,0,0,1-2.25-5.36,27.93,27.93,0,0,1-2.26,2.93l-2.59-1c.21-.25.42-.48.65-.71h-2.54v5.27l4.14-1,.91,2.14-12.91,3-1.13-2.06,1.63-.4V6.66h2.79v9.86l1.67-.39V3.42h-5V1.28h13V3.42h-5.07V8h3.5v1A25.38,25.38,0,0,0,145,6a15,15,0,0,0,1.12-5.3l2.91.15c-.08.71-.15,1.36-.23,1.94h8.43V4.94h-1.55a17.52,17.52,0,0,1-3.55,9.47,27.39,27.39,0,0,0,6,4.37l-2.73,1.44a32.68,32.68,0,0,1-5.08-4,30.55,30.55,0,0,1-6.42,4.09l-2.48-1.69a45.43,45.43,0,0,0,6.23-3.47C148,14.84,148.32,14.56,148.66,14.3Zm3.58-5.67a15.44,15.44,0,0,0,.56-3.69h-4.08a15,15,0,0,0,1.69,7.36A9.62,9.62,0,0,0,152.24,8.63Z"/><path class="cls-1" d="M167.28,12.68q-.28.25-.54.45l-2-.82a14.87,14.87,0,0,1-2.17,7.27l-2.79-.76a13.85,13.85,0,0,0,1.69-3.91,20.65,20.65,0,0,0,.42-4.23V2.73c0-.4.29-.59.82-.59H173V.84h2.9v1.3h10.21V4.28H165.19c-.24,0-.37.08-.37.25V11.3a.55.55,0,0,1,0,.17,16.12,16.12,0,0,0,4.57-6.77l2.82.57a23.74,23.74,0,0,1-2.11,4.11V19.81h-2.79ZM181.2,9h-9.08V6.93h9.08v-2h2.9v2h2.37V9H184.1v9.19a1.18,1.18,0,0,1-.34.87,3.53,3.53,0,0,1-1.18.68q-2.73.84-7.92-.15V17.36l.51.08q4.17.89,5.72.31a.53.53,0,0,0,.31-.5Zm-9.13,1.69,2.53-1.07a29.84,29.84,0,0,1,4.15,5.69l-2.65,1A29.25,29.25,0,0,0,172.07,10.68Z"/><path class="cls-2" d="M52.87,30.43,50.4,34.52a1,1,0,0,0-.18.5c0,.25.22.41.67.46v.16h-4.2v-.16c.41-.07.61-.22.61-.46a1.12,1.12,0,0,0-.18-.5l-3-5.13a3.5,3.5,0,0,0-.57-.79,1.62,1.62,0,0,0-.71-.28v-.21h4.28v.21c-.41.09-.62.23-.62.43a1.29,1.29,0,0,0,.2.48l2.09,3.55,2.11-3.53a1.16,1.16,0,0,0,.19-.48c0-.22-.23-.37-.68-.45v-.21h5v.21c-.43.1-.65.25-.65.47a1,1,0,0,0,.17.44L57,32.78l2.09-3.59a.81.81,0,0,0,.13-.4.33.33,0,0,0-.14-.29,1.38,1.38,0,0,0-.52-.18v-.21H63v.21a2,2,0,0,0-.72.31,3,3,0,0,0-.57.76l-3,5.13a1,1,0,0,0-.16.49c0,.26.23.42.69.47v.16H54.8v-.16c.43-.08.64-.24.64-.49a1.45,1.45,0,0,0-.22-.47Z"/><path class="cls-2" d="M72.69,30.43l-2.47,4.09A1,1,0,0,0,70,35c0,.25.22.41.66.46v.16H66.51v-.16c.41-.07.61-.22.61-.46a1.12,1.12,0,0,0-.18-.5l-3-5.13a3.18,3.18,0,0,0-.58-.79,1.52,1.52,0,0,0-.7-.28v-.21H67v.21c-.42.09-.62.23-.62.43a1.13,1.13,0,0,0,.2.48l2.09,3.55,2.1-3.53a1.08,1.08,0,0,0,.2-.48c0-.22-.23-.37-.68-.45v-.21h5v.21c-.44.1-.65.25-.65.47a.91.91,0,0,0,.17.44l2.06,3.55L79,29.19a.93.93,0,0,0,.13-.4.33.33,0,0,0-.14-.29,1.45,1.45,0,0,0-.52-.18v-.21h4.39v.21a2,2,0,0,0-.72.31,3,3,0,0,0-.57.76l-3,5.13a1,1,0,0,0-.16.49c0,.26.23.42.68.47v.16H74.62v-.16c.43-.08.64-.24.64-.49a1.45,1.45,0,0,0-.22-.47Z"/><path class="cls-2" d="M92.5,30.43,90,34.52a1,1,0,0,0-.18.5c0,.25.22.41.66.46v.16H86.33v-.16c.4-.07.6-.22.6-.46a1.12,1.12,0,0,0-.18-.5l-3-5.13a3.18,3.18,0,0,0-.58-.79,1.57,1.57,0,0,0-.71-.28v-.21h4.29v.21c-.42.09-.63.23-.63.43a1.2,1.2,0,0,0,.21.48l2.09,3.55,2.1-3.53a1,1,0,0,0,.19-.48c0-.22-.22-.37-.67-.45v-.21h5v.21c-.44.1-.66.25-.66.47a1,1,0,0,0,.18.44l2.06,3.55,2.09-3.59a.93.93,0,0,0,.13-.4.33.33,0,0,0-.14-.29,1.45,1.45,0,0,0-.52-.18v-.21h4.39v.21a2,2,0,0,0-.72.31,2.72,2.72,0,0,0-.58.76l-3,5.13a1,1,0,0,0-.17.49c0,.26.23.42.69.47v.16H94.43v-.16c.43-.08.65-.24.65-.49a1.45,1.45,0,0,0-.22-.47Z"/><path class="cls-2" d="M104.52,33.57a2,2,0,0,1,1.17.33,1,1,0,0,1,.48.79.91.91,0,0,1-.49.78,2,2,0,0,1-1.16.32,2.15,2.15,0,0,1-1.18-.32,1,1,0,0,1-.48-.79.92.92,0,0,1,.48-.77A2.11,2.11,0,0,1,104.52,33.57Z"/><path class="cls-2" d="M118.88,32.73h-2.56a1.07,1.07,0,0,0-.49.09.65.65,0,0,0-.26.35h-.28v-2h.28a.66.66,0,0,0,.26.34,1.06,1.06,0,0,0,.49.1h5.37v.21a1.25,1.25,0,0,0-.51.2.46.46,0,0,0-.14.36V34a.39.39,0,0,0,.14.32,1.46,1.46,0,0,0,.51.18v.16a19,19,0,0,1-6.52,1.18,10.17,10.17,0,0,1-4.54-.87,4.81,4.81,0,0,1-1.51-1.19,2.88,2.88,0,0,1-.68-1.82,3,3,0,0,1,1.23-2.36,8.65,8.65,0,0,1,5.67-1.6,17,17,0,0,1,3.75.48,8.67,8.67,0,0,0,1,.2.89.89,0,0,0,.4-.12l.25.1L119.4,30.5l-.25-.08v0q0-.24-.75-.51a9,9,0,0,0-3-.48,6.06,6.06,0,0,0-3,.66,2.1,2.1,0,0,0-1.24,1.87,2,2,0,0,0,1.12,1.76,6.42,6.42,0,0,0,3.23.68,9.85,9.85,0,0,0,3.34-.49Z"/><path class="cls-2" d="M132.76,30.13a2.06,2.06,0,0,1,1,1.78,2,2,0,0,1-1,1.7,5.75,5.75,0,0,1-5.68,0,2,2,0,0,1-1-1.74,2.07,2.07,0,0,1,1-1.74,4.9,4.9,0,0,1,2.83-.74A5.23,5.23,0,0,1,132.76,30.13Zm-7.3-1.26a3.31,3.31,0,0,0-2.15,3,3.36,3.36,0,0,0,2.15,3,11.5,11.5,0,0,0,8.92,0,3.33,3.33,0,0,0,2.15-3,3.37,3.37,0,0,0-2.15-3.06A9.79,9.79,0,0,0,129.9,28,9.93,9.93,0,0,0,125.46,28.87Z"/><path class="cls-2" d="M143.37,33.25l2.72-4a1.07,1.07,0,0,0,.24-.5c0-.23-.22-.38-.66-.47v-.21H150v.21a1.62,1.62,0,0,0-.59.22,2.33,2.33,0,0,0-.46.52L145,34.6a.92.92,0,0,0-.21.46c0,.22.22.36.67.42v.16h-4.43v-.16q.66-.09.66-.42a.92.92,0,0,0-.21-.46l-4-5.54a2.46,2.46,0,0,0-.46-.53,1.84,1.84,0,0,0-.6-.21v-.21h4.57v.21c-.43.09-.64.25-.64.47a1.15,1.15,0,0,0,.25.5Z"/><path class="cls-2" d="M151.67,33.57a2,2,0,0,1,1.18.33,1,1,0,0,1,.48.79.91.91,0,0,1-.49.78,2,2,0,0,1-1.17.32,2.14,2.14,0,0,1-1.17-.32,1,1,0,0,1-.48-.79.92.92,0,0,1,.48-.77A2.1,2.1,0,0,1,151.67,33.57Z"/><path class="cls-2" d="M162.07,29.48V35a.38.38,0,0,0,.14.31,1.42,1.42,0,0,0,.52.19v.19h-4v-.19a1,1,0,0,0,.5-.18.36.36,0,0,0,.15-.31V29.48h-3.33a.92.92,0,0,0-.49.1.73.73,0,0,0-.27.34H155V27.67h.28a.66.66,0,0,0,.26.34,1,1,0,0,0,.49.1h9.37a1.06,1.06,0,0,0,.49-.1.66.66,0,0,0,.26-.34h.29v2.25h-.29a.66.66,0,0,0-.26-.34.94.94,0,0,0-.49-.1Z"/><path class="cls-2" d="M176.45,30.43,174,34.52a1,1,0,0,0-.18.5c0,.25.22.41.66.46v.16h-4.19v-.16c.4-.07.61-.22.61-.46a1.17,1.17,0,0,0-.19-.5l-3-5.13a3.18,3.18,0,0,0-.58-.79,1.57,1.57,0,0,0-.7-.28v-.21h4.28v.21c-.42.09-.63.23-.63.43a1.2,1.2,0,0,0,.21.48l2.09,3.55,2.1-3.53a1,1,0,0,0,.19-.48c0-.22-.22-.37-.67-.45v-.21h5v.21c-.44.1-.65.25-.65.47a.91.91,0,0,0,.17.44l2.06,3.55,2.09-3.59a.93.93,0,0,0,.13-.4.33.33,0,0,0-.14-.29,1.45,1.45,0,0,0-.52-.18v-.21h4.39v.21a2,2,0,0,0-.72.31,2.72,2.72,0,0,0-.58.76l-3,5.13a1,1,0,0,0-.16.49c0,.26.22.42.68.47v.16h-4.39v-.16c.44-.08.65-.24.65-.49a1.45,1.45,0,0,0-.22-.47Z"/><line class="cls-4" x1="43.43" y1="24.15" x2="185.99" y2="24.15"/></g></svg>