<svg width="1920" height="1127" viewBox="0 0 1920 1127" fill="none" xmlns="http://www.w3.org/2000/svg">
<g opacity="0.1">
<path d="M-51.6641 1126.15H1918.31" stroke="#EEEEEE" stroke-dasharray="4 2"/>
<path d="M-51.6641 859.504H1918.31" stroke="#EEEEEE" stroke-dasharray="4 2"/>
<path d="M-51.6641 592.854H1918.31" stroke="#EEEEEE" stroke-dasharray="4 2"/>
<path d="M-51.6641 326.203H1918.31" stroke="#EEEEEE" stroke-dasharray="4 2"/>
<path d="M-51.6641 59.5533H1918.31" stroke="#EEEEEE" stroke-dasharray="4 2"/>
<path d="M277.133 58.8499V1126.86" stroke="#EEEEEE" stroke-dasharray="4 2"/>
<path d="M605.229 58.8499V1126.86" stroke="#EEEEEE" stroke-dasharray="4 2"/>
<path d="M933.322 58.8499V1126.86" stroke="#EEEEEE" stroke-dasharray="4 2"/>
<path d="M1261.42 58.8499V1126.86" stroke="#EEEEEE" stroke-dasharray="4 2"/>
<path d="M1589.51 58.8499V1126.86" stroke="#EEEEEE" stroke-dasharray="4 2"/>
<path d="M1917.61 58.8499V1126.86" stroke="#EEEEEE" stroke-dasharray="4 2"/>
<path opacity="0.2" fill-rule="evenodd" clip-rule="evenodd" d="M-51.6641 1029.77L112.5 835.583L276.665 641.399L440.83 447.216L604.994 932.674L769.159 738.491L933.323 544.308L1097.49 301.579L1261.65 495.762L1425.82 398.67L1589.98 204.487L1754.15 58.8499L1918.31 155.941V988H-51.6641V1029.77Z" fill="#36558F"/>
<path d="M-51.6641 1029.77L112.5 835.583L276.665 641.399L440.83 447.216L604.994 932.674L769.159 738.491L933.323 544.308L1097.49 301.579L1261.65 495.762L1425.82 398.67L1589.98 204.487L1754.15 58.8499L1918.31 155.941" stroke="#36558F" stroke-width="2" stroke-linejoin="round"/>
<circle cx="112.502" cy="835.583" r="4.51781" fill="white" stroke="#36558F" stroke-width="2"/>
<circle cx="276.664" cy="641.4" r="4.51781" fill="white" stroke="#36558F" stroke-width="2"/>
<circle cx="440.828" cy="447.216" r="4.51781" fill="white" stroke="#36558F" stroke-width="2"/>
<circle cx="604.996" cy="932.674" r="4.51781" fill="white" stroke="#36558F" stroke-width="2"/>
<circle cx="769.158" cy="738.491" r="4.51781" fill="white" stroke="#36558F" stroke-width="2"/>
<circle cx="933.324" cy="544.308" r="4.51781" fill="white" stroke="#36558F" stroke-width="2"/>
<circle cx="1097.49" cy="301.579" r="4.51781" fill="white" stroke="#36558F" stroke-width="2"/>
<circle cx="1261.65" cy="495.762" r="4.51781" fill="white" stroke="#36558F" stroke-width="2"/>
<circle cx="1425.82" cy="398.671" r="4.51781" fill="white" stroke="#36558F" stroke-width="2"/>
<circle cx="1589.98" cy="204.487" r="4.51781" fill="white" stroke="#36558F" stroke-width="2"/>
<circle cx="1754.14" cy="58.8498" r="4.51781" fill="white" stroke="#36558F" stroke-width="2"/>
<circle cx="1918.31" cy="155.942" r="4.51781" fill="white" stroke="#36558F" stroke-width="2"/>
</g>
</svg>
