<svg width="30" height="30" viewBox="0 0 30 30" fill="none" xmlns="http://www.w3.org/2000/svg">
<path d="M13.9779 11.3342L9.97349 7.3291C9.62242 6.97962 9.14715 6.78311 8.65189 6.78391C8.15664 6.78391 7.68176 6.98083 7.33149 7.3311C6.98122 7.68137 6.78431 8.15624 6.78391 8.65189C6.78351 9.14675 6.98001 9.62203 7.32949 9.9731L11.3342 13.9779C11.6849 14.3285 12.1606 14.5254 12.6558 14.5254C13.1519 14.5254 13.6276 14.3285 13.9783 13.9779C14.3285 13.6276 14.5254 13.1519 14.5254 12.6558C14.5258 12.1602 14.3285 11.6849 13.9779 11.3342Z" fill="#FFA800"/>
<path d="M22.8007 2.64362L22.8008 6.64877C22.8004 6.8944 22.8491 7.13724 22.9429 7.3645C23.0368 7.59095 23.1746 7.79744 23.3479 7.97078C23.5217 8.14452 23.7277 8.28191 23.9546 8.37616C24.1815 8.46962 24.4243 8.51834 24.6703 8.51834C24.9156 8.51834 25.1588 8.47003 25.3857 8.37577C25.6121 8.28192 25.8186 8.14412 25.9919 7.97078C26.1657 7.79704 26.3031 7.59095 26.3973 7.36409C26.4912 7.13763 26.5395 6.89441 26.5399 6.64878L26.5395 2.64402C26.5399 2.39839 26.4912 2.15556 26.3973 1.9283C26.3035 1.70185 26.1657 1.49534 25.9923 1.322C25.8186 1.14827 25.6121 1.01048 25.3857 0.916623C25.1584 0.822765 24.9156 0.774043 24.6699 0.774443C24.4247 0.774443 24.1815 0.822777 23.955 0.916635C23.7278 1.01049 23.5221 1.14827 23.3483 1.322C23.1746 1.49574 23.0368 1.70145 22.9429 1.92871C22.8491 2.15516 22.8007 2.39839 22.8007 2.64362Z" fill="#FFA800"/>
<path d="M8.51824 24.6707C8.51824 24.1746 8.32132 23.699 7.97065 23.3483C7.61998 22.9976 7.14471 22.8011 6.64866 22.8011L2.6439 22.8007C2.14825 22.8011 1.67257 22.998 1.3219 23.3487C0.971629 23.699 0.774725 24.1746 0.774326 24.6703C0.774326 25.1663 0.971632 25.6416 1.3223 25.9923C1.67297 26.343 2.14785 26.5399 2.6439 26.5399L6.64905 26.5399C7.1443 26.5399 7.61998 26.343 7.97065 25.9923C8.32132 25.6416 8.51824 25.1659 8.51824 24.6707Z" fill="#FFA800"/>
</svg>
